<?xml version="1.0" standalone="no"?>
<!DOCTYPE svg PUBLIC "-//W3C//DTD SVG 1.1//EN" "http://www.w3.org/Graphics/SVG/1.1/DTD/svg11.dtd" >
<svg xmlns="http://www.w3.org/2000/svg">
<metadata></metadata>
<defs>
<font id="scandinavianbold" horiz-adv-x="1214" >
<font-face units-per-em="2048" ascent="1577" descent="-471" />
<missing-glyph horiz-adv-x="440" />
<glyph unicode="&#xfb01;" horiz-adv-x="1208" d="M25 872v193h155v111q0 85 17 143t58 100.5t113 62t179 19.5q63 0 125 -8v-193q-45 9 -82 9q-50 0 -82 -8.5t-47.5 -27.5t-21 -41t-5.5 -56v-111h195v-193h-195v-872h-254v872h-155zM801 0v1065h254v-1065h-254zM801 1225v252h254v-252h-254z" />
<glyph unicode="&#xfb02;" horiz-adv-x="1208" d="M25 872v193h155v111q0 85 16.5 143t57 100.5t112.5 62t181 19.5q63 0 125 -8v-193q-11 1 -25.5 4t-27 4t-29.5 1q-95 0 -125.5 -29.5t-30.5 -103.5v-111h195v-193h-195v-872h-254v872h-155zM801 0v1501h254v-1501h-254z" />
<glyph horiz-adv-x="0" />
<glyph horiz-adv-x="682" />
<glyph unicode=" "  horiz-adv-x="440" />
<glyph unicode="&#x09;" horiz-adv-x="440" />
<glyph unicode="&#xa0;" horiz-adv-x="440" />
<glyph unicode="!" horiz-adv-x="534" d="M115 1501h305l-45 -985h-215zM129 0v311h277v-311h-277z" />
<glyph unicode="&#x22;" horiz-adv-x="839" d="M115 1260v241h247v-241l-40 -291h-164zM477 1260v241h248v-241l-43 -291h-164z" />
<glyph unicode="#" horiz-adv-x="1366" d="M78 410v192h209l63 297h-272v193h311l86 409h191l-86 -409h350l86 409h188l-86 -409h170v-193h-209l-63 -297h272v-192h-313l-86 -410h-189l86 410h-350l-86 -410h-190l86 410h-168zM475 602h350l64 297h-350z" />
<glyph unicode="$" d="M104 1098q0 74 23.5 139.5t72 122t132 94t194.5 47.5v107h181v-107q110 -16 179 -42.5t140 -69.5v-281q-143 137 -319 166v-402q57 -22 93.5 -37.5t85 -40.5t79 -48t64 -56.5t52 -70t31 -85t12.5 -104.5q0 -186 -108 -302t-309 -148v-216h-181v211q-126 11 -218 48 t-187 100v289q36 -34 64.5 -56.5t81 -57t118.5 -58t141 -33.5v452q-60 26 -92.5 40.5t-84.5 41.5t-81 48.5t-65 56t-54.5 69.5t-31.5 82t-13 101zM354 1120q0 -51 34.5 -91t137.5 -81v326q-78 -6 -125 -49t-47 -105zM707 215q167 44 167 182q0 39 -14 70t-43 53t-50.5 34 t-59.5 28v-367z" />
<glyph unicode="%" horiz-adv-x="1798" d="M31 1128q0 57 9 110.5t32.5 107.5t60 94t97 65t137.5 25q79 0 140.5 -26.5t97 -67t58.5 -95.5t31 -106t8 -105t-7.5 -103.5t-29.5 -105.5t-57.5 -96.5t-97.5 -67t-143 -26.5q-73 0 -131.5 22t-96 59.5t-62.5 89t-35.5 107.5t-10.5 119zM229 1128q0 -27 2 -53t10 -65 t21.5 -67t40.5 -48.5t64 -20.5q42 0 71 24.5t42.5 66t18.5 80.5t5 83q0 27 -2 53.5t-10 66t-21.5 68t-40.5 49.5t-63 21q-42 0 -71.5 -26t-42.5 -69t-18.5 -82t-5.5 -81zM373 -29l889 1559h163l-888 -1559h-164zM1096 385q0 57 9 110t32.5 107t60 93t97 64t137.5 25 q79 0 140.5 -26t97 -66.5t58.5 -95.5t31 -106t8 -105q0 -53 -7.5 -102.5t-29.5 -105.5t-57.5 -96.5t-97.5 -67.5t-143 -27q-73 0 -131.5 22t-96 59.5t-62.5 89.5t-35.5 108.5t-10.5 119.5zM1294 385q0 -28 2 -54t10 -65.5t21.5 -67.5t40.5 -48.5t64 -20.5q42 0 71 25 t42.5 67t18.5 81t5 83q0 27 -2 53.5t-10 65.5t-21.5 67t-40.5 49t-63 21q-34 0 -60 -18t-40.5 -44.5t-23 -63t-11.5 -67.5t-3 -63z" />
<glyph unicode="&#x26;" horiz-adv-x="1415" d="M78 410q0 74 21.5 134t67.5 112.5t100.5 94t138.5 93.5q-46 68 -62 93.5t-40.5 71.5t-32 83.5t-7.5 83.5q0 67 26 129t74.5 113t127.5 81.5t176 30.5q94 0 166.5 -27.5t115.5 -73.5t64.5 -100.5t21.5 -114.5q0 -70 -23.5 -132.5t-70 -116.5t-88 -90.5t-104.5 -83.5 l233 -316q26 39 42 78.5t46 134.5h234q-35 -142 -76 -230.5t-105 -174.5l209 -283h-289l-83 111q-29 -29 -55 -49t-69.5 -43t-104.5 -35.5t-136 -12.5q-119 0 -218 35t-164 94.5t-100.5 139.5t-35.5 170zM356 399q0 -33 15 -67t44 -65.5t81.5 -51.5t119.5 -20q41 0 76 9 t62.5 26.5t41 29t31.5 29.5l-274 366q-197 -126 -197 -256zM526 1182q0 -48 19 -87.5t69 -115.5q41 34 63 55t48.5 52.5t38.5 63.5t12 69q0 34 -12.5 59t-32 37t-37.5 17t-35 5q-66 0 -99.5 -48.5t-33.5 -106.5z" />
<glyph unicode="'" horiz-adv-x="477" d="M115 1260v241h247v-241l-40 -291h-164z" />
<glyph unicode="(" horiz-adv-x="768" d="M94 567q0 134 22.5 254t56 209t92 184.5t108.5 160t129 155.5h252q-139 -176 -217.5 -315t-119 -296.5t-40.5 -351.5t40.5 -352t119 -297t217.5 -315h-252q-100 112 -168 207t-126 212t-86 252t-28 293z" />
<glyph unicode=")" horiz-adv-x="768" d="M14 -397q139 176 217.5 315t119 297t40.5 352t-40.5 351.5t-119 296.5t-217.5 315h252q79 -91 129 -155.5t108.5 -160t92 -184.5t56 -209t22.5 -254q0 -158 -28 -293t-86 -252t-126 -212t-168 -207h-252z" />
<glyph unicode="*" horiz-adv-x="935" d="M43 991v221l346 -65l-225 272l192 111l109 -340l115 340l192 -113l-225 -274l346 69v-221l-346 64l225 -269l-194 -110l-113 332l-117 -326l-192 106l227 269z" />
<glyph unicode="+" horiz-adv-x="1366" d="M127 645v213h451v451h213v-451h448v-213h-448v-450h-213v450h-451z" />
<glyph unicode="," horiz-adv-x="524" d="M113 -303l118 303h-116v328h295v-314l-168 -317h-129z" />
<glyph unicode="-" horiz-adv-x="671" d="M72 426v213h528v-213h-528z" />
<glyph unicode="." horiz-adv-x="524" d="M115 0v328h295v-328h-295z" />
<glyph unicode="/" horiz-adv-x="1009" d="M25 0l720 1501h238l-721 -1501h-237z" />
<glyph unicode="0" d="M70 743q0 64 4 126t18 143t37 150.5t64.5 139t96 118.5t136 79.5t180.5 30.5q87 0 160.5 -23.5t125 -60t93.5 -92.5t68 -108.5t44.5 -121t27.5 -117.5t14 -110t5.5 -86.5t0.5 -58.5q0 -63 -4 -124t-18.5 -141.5t-37.5 -149.5t-64 -138t-95.5 -118t-136.5 -79.5 t-181 -30.5q-94 0 -172.5 27.5t-133 72.5t-97 109t-67.5 131.5t-41 146.5t-21.5 146.5t-5.5 138.5zM342 750q0 -74 5.5 -141t22.5 -144t45 -132t77.5 -91.5t115.5 -36.5q57 0 102 26.5t72.5 74t46.5 101t27.5 119.5t12 117.5t3.5 106.5q0 56 -3.5 108.5t-13 118t-28.5 119.5 t-46.5 100.5t-72 73t-100.5 26.5q-57 0 -102.5 -27.5t-73.5 -76t-47 -103t-27.5 -121t-12 -116.5t-3.5 -102z" />
<glyph unicode="1" d="M233 1102v209q98 32 168 68.5t197 121.5h213v-1294h213v-207h-723v207h248v1018q-144 -84 -316 -123z" />
<glyph unicode="2" d="M72 0q31 196 79.5 316t128.5 212t240 222q65 53 93.5 76.5t71.5 60t58.5 54t38 43t29.5 44t12.5 40t5.5 46.5q0 42 -15.5 74.5t-40 52.5t-58 32.5t-66.5 17.5t-69 5q-79 0 -153.5 -18t-139.5 -52.5t-97.5 -55.5t-78.5 -54v275q46 26 80 43t98.5 43t141 39.5t159.5 13.5 q103 0 187.5 -24t141 -64.5t95 -95t56 -113t17.5 -121.5q0 -32 -5 -60.5t-10.5 -53t-24 -54t-31 -50t-48 -56.5t-58.5 -59t-77.5 -71t-90 -78.5t-111.5 -94.5q-75 -63 -122.5 -111t-70 -86t-30 -58t-15.5 -55h717v-225h-1038z" />
<glyph unicode="3" d="M119 61v261q2 -1 26 -13.5t33.5 -17t35.5 -17t43 -18.5t45.5 -16.5t53 -16t55 -11.5t63 -8.5t65.5 -2.5q54 0 101.5 12t88.5 37t64.5 69.5t23.5 104.5q0 246 -352 246h-141v209q115 4 200 18t136.5 34t82 49.5t41.5 60t11 69.5q0 48 -18 85t-44.5 57t-62.5 32t-64.5 15.5 t-58.5 3.5q-114 0 -212 -38.5t-206 -107.5v260q226 113 434 113q102 0 185 -23.5t137 -62.5t90.5 -92t52.5 -110t16 -118q0 -248 -278 -340q64 -16 113.5 -40.5t96 -66t72 -108.5t25.5 -155q0 -109 -43.5 -195.5t-117.5 -139.5t-167 -80.5t-198 -27.5q-184 0 -428 90z" />
<glyph unicode="4" d="M31 299v229l590 973h340v-973h184v-229h-184v-299h-246v299h-684zM301 528h414v697z" />
<glyph unicode="5" d="M129 51v252q78 -35 123.5 -52.5t117.5 -33.5t144 -16q334 0 334 291q0 136 -71 198t-181 62q-57 0 -108 -17t-72 -31t-51 -38h-224l60 835h815v-225h-606l-29 -391q39 23 67.5 36.5t86 27.5t120.5 14q112 0 200 -37.5t141 -102.5t80.5 -147.5t27.5 -177.5 q0 -81 -17.5 -154.5t-59.5 -143t-105.5 -119.5t-161.5 -80t-221 -30q-199 0 -410 80z" />
<glyph unicode="6" d="M70 606q0 98 18.5 193t46 170.5t71.5 152t82 130t91 113t86 91.5t78 74h338q-87 -75 -152.5 -137.5t-135 -139.5t-118.5 -148t-89 -155.5t-60 -171.5q38 33 51.5 45t61 45t82.5 48.5t91 30t113 14.5q186 0 309 -129.5t123 -344.5q0 -240 -144 -378t-382 -138 q-128 0 -228.5 41t-161.5 105t-101 150.5t-55 169t-15 169.5zM338 522q5 -34 12.5 -65t29.5 -81.5t52 -85.5t85 -62t124 -27q47 0 91 16t82.5 47t61.5 85.5t23 123.5q0 65 -24.5 122.5t-78.5 96.5t-128 39q-65 0 -130 -33.5t-108 -75t-92 -100.5z" />
<glyph unicode="7" d="M102 1257v244h1004v-244q-83 -138 -138.5 -238t-141 -269t-157 -358.5t-126.5 -391.5h-289q94 348 212 603t359 654h-723z" />
<glyph unicode="8" d="M59 391q0 50 12.5 95t29.5 77.5t48 65t53.5 51.5t61.5 42t56 32t53 26q-37 19 -60.5 33t-66.5 48.5t-69 70t-47 92t-21 121.5q0 169 136.5 277t362.5 108q99 0 182 -21.5t140.5 -58.5t97.5 -86t59 -104t19 -113q0 -66 -21 -123.5t-47 -93t-69.5 -69.5t-67 -48t-61.5 -33 q31 -14 49 -23t55.5 -30.5t61.5 -41t55 -52t49.5 -66.5t31.5 -80.5t13 -97.5q0 -187 -151.5 -302.5t-399.5 -115.5q-252 0 -398.5 117.5t-146.5 302.5zM332 408q0 -99 76.5 -156t197.5 -57q71 0 131.5 20t103 69.5t42.5 121.5q0 46 -18 86t-42 66.5t-66 52.5t-72 40.5 t-79 34.5q-61 -26 -101.5 -47.5t-84.5 -55.5t-66 -77.5t-22 -97.5zM381 1124q0 -40 14.5 -75t33.5 -58t53.5 -47.5t58.5 -37t65 -32.5l40.5 19.5t41.5 22.5t44.5 29t38.5 34t33.5 41.5t20.5 48t9 57.5q0 31 -11 61.5t-35.5 60t-70.5 47.5t-109 18q-103 0 -165 -50.5 t-62 -138.5z" />
<glyph unicode="9" d="M57 1034q0 103 37.5 193.5t105 158t169 106t223.5 38.5q120 0 216.5 -37.5t158 -97.5t103 -140t58.5 -161t17 -164q0 -101 -26 -202.5t-66.5 -188t-107 -184t-131 -176.5t-155.5 -179h-331q124 123 196 199.5t144.5 167.5t120.5 179t90 197q-95 -76 -148 -106 q-109 -59 -237 -59q-183 0 -310 127t-127 329zM322 1047q0 -94 64 -167t165 -73q86 0 164 50t159 144q-3 40 -11.5 77t-29.5 79t-51 72.5t-80 50.5t-114 20q-73 0 -127.5 -25.5t-83 -65.5t-42 -81t-13.5 -81z" />
<glyph unicode=":" horiz-adv-x="524" d="M115 0v328h295v-328h-295zM115 737v328h295v-328h-295z" />
<glyph unicode=";" horiz-adv-x="524" d="M113 -303l118 303h-116v328h295v-314l-168 -317h-129zM115 737v328h295v-328h-295z" />
<glyph unicode="&#x3c;" horiz-adv-x="1366" d="M125 653v195l1116 463v-232l-795 -329l795 -328v-234z" />
<glyph unicode="=" horiz-adv-x="1366" d="M125 403v213h1114v-213h-1114zM125 883v213h1114v-213h-1114z" />
<glyph unicode="&#x3e;" horiz-adv-x="1366" d="M125 188v234l793 328l-793 329v232l1116 -463v-195z" />
<glyph unicode="?" horiz-adv-x="944" d="M41 1118v289q209 123 424 123q109 0 200.5 -40.5t149 -121.5t57.5 -188q0 -25 -1.5 -43t-11.5 -53t-28 -67t-55 -76.5t-88 -90.5q-55 -49 -89 -90t-49 -79t-19.5 -66t-4.5 -70v-29h-221v68q0 106 33.5 180.5t128.5 169.5q75 75 95 117.5t20 95.5q0 61 -44 101t-118 40 q-52 0 -107 -16.5t-109 -47t-87 -52.5t-76 -54zM279 0v311h278v-311h-278z" />
<glyph unicode="@" horiz-adv-x="1855" d="M82 545q0 223 73.5 404.5t198 298t285.5 179t340 62.5q132 0 251.5 -35t218.5 -106t171.5 -171t113 -237.5t40.5 -298.5q0 -69 -9 -139.5t-28 -144t-52.5 -136.5t-77.5 -113t-108.5 -79t-140.5 -29q-55 0 -100.5 15t-71.5 33.5t-48 48.5t-29.5 46.5t-16.5 40.5 q-35 -42 -51.5 -60.5t-48 -48t-55.5 -42t-59.5 -23t-74.5 -10.5q-77 0 -136 34.5t-93.5 93t-52 127.5t-17.5 144q0 109 32.5 212.5t87.5 181.5t131.5 125t159.5 47q48 0 89.5 -21.5t62 -43.5t45.5 -56l10 114h236l-64 -581q-6 -53 -6 -90q0 -119 86 -119q50 0 91.5 46.5 t66 119t38 153.5t13.5 158q0 135 -39 251.5t-113 205t-191.5 139.5t-264.5 51t-273 -51.5t-218 -145.5t-144.5 -235t-52.5 -313q0 -104 19 -202t70.5 -199.5t130 -176.5t209 -122.5t296.5 -47.5q92 0 178 11.5t164.5 35.5t116.5 37.5t100 38.5v-207q-72 -28 -128 -46 t-178.5 -39t-250.5 -21q-190 0 -347 50.5t-264 138t-180.5 207t-107 255t-33.5 285.5zM756 385q0 -184 118 -184q29 0 55.5 11t50 34t39.5 42t38 50l33 307q-58 119 -136 119q-58 0 -104.5 -56.5t-70 -142t-23.5 -180.5z" />
<glyph unicode="A" horiz-adv-x="1341" d="M20 0l506 1501h289l506 -1501h-281l-100 315h-547l-100 -315h-273zM461 524h411l-206 656z" />
<glyph unicode="B" horiz-adv-x="1327" d="M172 0v1501h481q557 0 557 -366q0 -52 -12 -97.5t-28.5 -77t-45.5 -60t-51.5 -45t-58 -34t-53 -24t-48.5 -17.5q34 -9 55.5 -15.5t60 -22.5t64 -33t57 -46t50.5 -63t32 -82.5t13 -105.5q0 -181 -141 -296.5t-416 -115.5h-516zM455 221h176q150 0 236.5 53.5t86.5 169.5 q0 44 -13.5 81t-45.5 72t-94.5 55t-151.5 20h-194v-451zM455 889h198q72 0 126.5 17t82.5 40t45 54t21 51.5t4 40.5q0 188 -254 188h-223v-391z" />
<glyph unicode="C" horiz-adv-x="1290" d="M82 737q0 116 23.5 226t77.5 214t133.5 181.5t201 124.5t270.5 47q72 0 135 -9t118 -28.5t82 -31.5t75 -36v-292q-39 31 -67.5 50.5t-80.5 47.5t-114.5 42.5t-132.5 14.5q-94 0 -169 -32t-123 -84.5t-80 -124t-45 -146.5t-13 -156q0 -65 9.5 -126.5t30 -122.5t55.5 -111 t83 -89t116.5 -61t151.5 -22q85 0 160.5 22t120 47.5t119.5 75.5v-286q-189 -101 -428 -101q-163 0 -297.5 58t-224 160t-138.5 242.5t-49 305.5z" />
<glyph unicode="D" horiz-adv-x="1425" d="M172 0v1501h496q147 0 269 -46t213.5 -136.5t142 -236t50.5 -334.5q0 -196 -52 -342.5t-146.5 -234t-217 -129.5t-274.5 -42h-481zM455 242h196q186 0 294 137.5t108 380.5q0 134 -33.5 232.5t-95 156t-140.5 84.5t-178 27h-151v-1018z" />
<glyph unicode="E" horiz-adv-x="1220" d="M172 0v1501h905v-241h-622v-381h585v-234h-585v-403h655v-242h-938z" />
<glyph unicode="F" horiz-adv-x="1112" d="M172 0v1501h887v-241h-604v-381h536v-242h-536v-637h-283z" />
<glyph unicode="G" horiz-adv-x="1392" d="M82 743q0 65 8 132t30.5 146t56.5 149.5t91 137.5t129.5 115t176.5 77.5t227 29.5q95 0 179.5 -18t132.5 -38t112 -53v-293q-46 35 -75 54.5t-83 48.5t-116.5 43t-133.5 14q-101 0 -180 -33.5t-127.5 -86.5t-80.5 -125.5t-44 -143.5t-12 -147q0 -45 4.5 -90t17.5 -99.5 t33 -102.5t55 -94.5t79.5 -79.5t109.5 -53t143 -20q125 0 193 29v305h-314v213h576v-680q-214 -109 -457 -109q-162 0 -291.5 49t-210 126.5t-134 181t-74.5 206t-21 209.5z" />
<glyph unicode="H" horiz-adv-x="1511" d="M172 0v1501h283v-598h602v598h282v-1501h-282v655h-602v-655h-283z" />
<glyph unicode="I" horiz-adv-x="651" d="M184 0v1501h283v-1501h-283z" />
<glyph unicode="J" horiz-adv-x="983" d="M41 55v258q174 -100 315 -100q102 0 141.5 64t39.5 198v1026h282v-1067q0 -109 -22 -191.5t-59 -133.5t-91 -82.5t-111.5 -43.5t-127.5 -12q-191 0 -367 84z" />
<glyph unicode="K" horiz-adv-x="1335" d="M172 0v1501h283v-680l520 680h295l-441 -565l496 -936h-299l-367 719l-204 -264v-455h-283z" />
<glyph unicode="L" horiz-adv-x="1114" d="M172 0v1501h283v-1259h618v-242h-901z" />
<glyph unicode="M" horiz-adv-x="1716" d="M172 0v1501h422l264 -942l266 942h418v-1501h-254v1249l-350 -1249h-160l-352 1249v-1249h-254z" />
<glyph unicode="N" horiz-adv-x="1476" d="M172 0v1501h289l577 -1018v1018h267v-1501h-267l-600 1053v-1053h-266z" />
<glyph unicode="O" horiz-adv-x="1490" d="M82 750q0 169 44 312t126.5 247t208 162.5t280.5 58.5q208 0 360 -98.5t230 -274.5t78 -409q0 -167 -43.5 -308.5t-126 -246t-209 -163.5t-285.5 -59q-206 0 -357 99t-228.5 274t-77.5 406zM373 752q0 -81 11 -155.5t38.5 -145.5t69 -123t106.5 -83.5t147 -31.5 q78 0 140.5 27t101.5 74t66.5 101t40.5 118.5t18.5 114.5t5.5 100q0 70 -8.5 136.5t-34 142t-65 131.5t-108.5 93t-159 37q-80 0 -143.5 -30t-105.5 -80.5t-69.5 -120.5t-39.5 -145.5t-12 -159.5z" />
<glyph unicode="P" horiz-adv-x="1320" d="M172 0v1501h512q283 0 424 -120t141 -324q0 -85 -21 -156t-54.5 -119.5t-82 -86t-98 -59t-107 -35.5t-105.5 -18.5t-97 -4.5h-229v-578h-283zM455 815h217q123 0 204.5 58.5t81.5 170.5q0 104 -70.5 160t-213.5 56h-219v-445z" />
<glyph unicode="Q" horiz-adv-x="1490" d="M82 750q0 169 44 312t126.5 247t208 162.5t280.5 58.5q209 0 361 -99t229.5 -275t77.5 -408q0 -47 -3.5 -95.5t-17 -119.5t-35.5 -134.5t-63 -133t-95.5 -123.5t-137 -97.5t-183.5 -62.5q54 -64 137 -92.5t203 -28.5q64 0 125 10v-170q-70 -14 -157 -14q-82 0 -154 11.5 t-123.5 27.5t-97.5 43.5t-73.5 49.5t-56 55t-40.5 50.5t-29 45.5q-7 11 -10 16q-170 35 -288 146.5t-173 268.5t-55 349zM373 752q0 -71 9 -139t34.5 -143t65.5 -130t108 -91t155 -36q78 0 140.5 27t101.5 74t66.5 101t40.5 118.5t18.5 114.5t5.5 100q0 70 -8.5 136.5 t-34 142t-65 131.5t-108.5 93t-159 37q-83 0 -149 -33t-106.5 -86t-67 -125t-37 -143.5t-10.5 -148.5z" />
<glyph unicode="R" horiz-adv-x="1378" d="M172 0v1501h483q99 0 183 -13.5t159.5 -46t128.5 -81.5t84 -125t31 -172q0 -79 -19.5 -144.5t-46.5 -106.5t-70.5 -76.5t-75.5 -53t-77 -37.5l365 -645h-301l-328 604h-233v-604h-283zM455 829h188q148 0 227.5 56.5t79.5 165.5q0 60 -23 102t-66.5 65t-96 32.5 t-121.5 9.5h-188v-431z" />
<glyph unicode="S" horiz-adv-x="1222" d="M96 1112q0 193 136 305.5t386 112.5q83 0 154.5 -11t125 -31.5t82.5 -35t62 -35.5v-280q-41 31 -69 49.5t-84.5 48.5t-124 45.5t-143.5 15.5q-121 0 -186.5 -43.5t-65.5 -117.5q0 -53 42.5 -94.5t92 -64.5t174.5 -72q28 -11 43 -17q117 -46 191 -87t128.5 -94.5 t77.5 -119t23 -154.5q0 -95 -32.5 -177t-97 -146t-171 -101t-244.5 -37q-248 0 -496 121v289q33 -23 56.5 -37.5t78.5 -43t105 -46t122 -31.5t144 -14q113 0 187.5 49t74.5 141q0 27 -8 50t-20 41.5t-39.5 38.5t-51 34.5t-72.5 37t-85.5 37.5t-106.5 44 q-202 80 -295.5 177.5t-93.5 252.5z" />
<glyph unicode="T" horiz-adv-x="1212" d="M53 1260v241h1106v-241h-411v-1260h-283v1260h-412z" />
<glyph unicode="U" horiz-adv-x="1466" d="M156 537v964h282v-938q0 -71 15.5 -131t48 -110.5t92 -79.5t139.5 -29q65 0 116.5 19.5t84.5 52t54.5 78t30.5 95t9 105.5v938h283v-962q0 -279 -149 -423.5t-427 -144.5q-281 0 -430 144t-149 422z" />
<glyph unicode="V" horiz-adv-x="1243" d="M20 1501h287l320 -1073l317 1073h279l-463 -1501h-277z" />
<glyph unicode="W" horiz-adv-x="1726" d="M37 1501h274l193 -1005l211 1005h305l207 -1005l196 1005h267l-328 -1501h-266l-228 1139l-237 -1139h-266z" />
<glyph unicode="X" horiz-adv-x="1245" d="M20 0l455 782l-416 719h316l250 -465l249 465h312l-416 -715l455 -786h-316l-288 532l-291 -532h-310z" />
<glyph unicode="Y" horiz-adv-x="1191" d="M20 1501h310l272 -543l266 543h303l-432 -831v-670h-282v670z" />
<glyph unicode="Z" horiz-adv-x="1202" d="M74 0v195l719 1065h-662v241h997v-227l-696 -1032h696v-242h-1054z" />
<glyph unicode="[" horiz-adv-x="753" d="M193 -397v1898h516v-229h-254v-1440h254v-229h-516z" />
<glyph unicode="\" horiz-adv-x="1009" d="M25 1501h237l721 -1501h-238z" />
<glyph unicode="]" horiz-adv-x="753" d="M45 -168h254v1440h-254v229h516v-1898h-516v229z" />
<glyph unicode="^" horiz-adv-x="1171" d="M106 711l404 790h149l404 -790h-201l-276 536l-277 -536h-203z" />
<glyph unicode="_" horiz-adv-x="1024" d="M-12 -154h1048v-102h-1048v102z" />
<glyph unicode="`" horiz-adv-x="681" d="M39 1565h274l195 -365h-184z" />
<glyph unicode="a" horiz-adv-x="1087" d="M72 270q0 47 10.5 86.5t37.5 84t84.5 82.5t141.5 67l305 102q33 11 40 17.5t7 29.5v43q0 117 -180 117q-175 0 -381 -143v221q192 110 420 110q96 0 167.5 -19.5t114.5 -51t69 -80.5t35 -100t9 -117v-719h-204l-29 113q-40 -36 -76 -61.5t-104 -50t-142 -24.5 q-142 0 -233.5 82.5t-91.5 210.5zM330 291q0 -30 10 -54t25 -37.5t34.5 -22.5t36 -12t31.5 -3q114 0 231 119v262q-16 -13 -65 -31l-160 -57q-78 -29 -110.5 -67.5t-32.5 -96.5z" />
<glyph unicode="b" horiz-adv-x="1167" d="M139 0v1501h254v-534q24 23 45 39.5t56.5 37.5t81.5 32t100 11q86 0 157.5 -33t119 -87.5t80.5 -127t48 -150t15 -157.5q0 -132 -34 -239t-92 -175t-133 -104.5t-159 -36.5q-60 0 -111.5 14t-90.5 40.5t-59 43.5t-44 42l-29 -117h-205zM393 276q102 -94 211 -94 q56 0 99 25.5t67 63.5t39.5 88t20 91t4.5 82q0 153 -60.5 252t-167.5 99t-213 -92v-515z" />
<glyph unicode="c" horiz-adv-x="980" d="M72 532q0 113 32.5 211.5t95 176t165 122.5t233.5 45q174 0 313 -77v-232q-37 31 -64 50t-86.5 40t-125.5 21q-78 0 -139 -31t-96.5 -83t-53.5 -113.5t-18 -129.5q0 -25 3 -52.5t12 -72t30 -82t52 -73t83.5 -56t118.5 -20.5q51 0 97.5 10t87 30t63.5 34.5t57 38.5v-226 q-162 -86 -346 -86q-105 0 -192 30.5t-146 83t-99 124t-58.5 151t-18.5 166.5z" />
<glyph unicode="d" horiz-adv-x="1167" d="M72 535q0 113 27.5 212t79 175t132.5 120.5t181 44.5q54 0 99.5 -11t82 -33.5t55 -36.5t45.5 -39v534h254v-1501h-205l-28 117q-21 -21 -33.5 -33t-44.5 -35t-61.5 -36.5t-75 -24.5t-93.5 -11q-132 0 -228 79.5t-141.5 204t-45.5 274.5zM334 530q0 -61 11 -118.5 t35.5 -111t70.5 -86t108 -32.5q52 0 98.5 18t68 34.5t48.5 41.5v515q-105 92 -213 92q-106 0 -166.5 -97.5t-60.5 -255.5z" />
<glyph unicode="e" horiz-adv-x="1085" d="M72 537q0 130 38.5 235.5t106 173.5t157.5 104.5t193 36.5q96 0 178 -32.5t145 -95.5t98.5 -163.5t35.5 -228.5v-90h-690q21 -307 299 -307q101 0 176 29t164 88v-217q-31 -18 -55 -29.5t-69.5 -28.5t-104.5 -26t-128 -9q-132 0 -232.5 38t-158 95t-93.5 135.5t-48 148 t-12 143.5zM338 649h448q-28 250 -217 250q-197 0 -231 -250z" />
<glyph unicode="f" horiz-adv-x="647" d="M25 872v193h155v111q0 178 83.5 251.5t283.5 73.5q63 0 125 -8v-193q-45 9 -82 9q-93 0 -124.5 -30t-31.5 -103v-111h195v-193h-195v-872h-254v872h-155z" />
<glyph unicode="g" horiz-adv-x="1171" d="M72 541q0 153 47.5 275.5t143 196.5t224.5 74q59 0 110 -13t89.5 -37.5t60.5 -43t48 -45.5l28 117h205v-1004q0 -458 -481 -458q-230 0 -397 82v223q6 -3 33.5 -17.5t35.5 -18.5t34 -16.5t39.5 -17t39 -13.5t46 -12.5t47.5 -8.5t56 -7t60 -2q123 0 178 55.5t55 174.5v96 q-27 -25 -46 -40t-56 -37t-83 -33t-100 -11q-130 0 -225.5 72t-143.5 193.5t-48 275.5zM334 543q0 -88 22 -162t75 -125t130 -51q41 0 76.5 9t64 27t41 28t31.5 28v491q-27 26 -48 42t-68 34.5t-99 18.5q-56 0 -98.5 -24t-66 -59.5t-38 -84.5t-18.5 -89t-4 -83z" />
<glyph unicode="h" horiz-adv-x="1171" d="M139 0v1501h254v-547q54 38 97 62.5t115.5 47.5t144.5 23q286 0 286 -342v-745h-254v731q0 74 -24 113t-94 39q-111 0 -271 -99v-784h-254z" />
<glyph unicode="i" horiz-adv-x="561" d="M154 0v1065h254v-1065h-254zM154 1223v254h254v-254h-254z" />
<glyph unicode="j" horiz-adv-x="561" d="M-51 -197q62 -8 92 -8q31 0 52.5 9.5t33 23t18 36t8 41.5t1.5 46v1114h254v-1151q0 -157 -78.5 -234t-259.5 -77q-13 0 -121 8v192zM154 1223v254h254v-254h-254z" />
<glyph unicode="k" horiz-adv-x="1085" d="M139 0v1501h254v-895l371 459h276l-346 -420l367 -645h-283l-241 455l-144 -172v-283h-254z" />
<glyph unicode="l" horiz-adv-x="561" d="M154 0v1501h254v-1501h-254z" />
<glyph unicode="m" horiz-adv-x="1755" d="M143 0v1065h254v-121q100 72 175.5 107.5t164.5 35.5t158.5 -44.5t87.5 -118.5q112 87 195 125t174 38q64 0 113.5 -20.5t78.5 -53.5t47 -79t24.5 -90.5t6.5 -95.5v-748h-254v743q0 27 -5 51t-16 46.5t-33.5 35.5t-53.5 13q-49 0 -103 -27t-147 -94v-768h-254v731 q0 158 -107 158q-54 0 -114 -30.5t-138 -84.5v-774h-254z" />
<glyph unicode="n" horiz-adv-x="1173" d="M143 0v1065h254v-121q43 30 72 48t78.5 43.5t101.5 38.5t105 13q76 0 132.5 -25.5t89.5 -72t48.5 -104t15.5 -127.5v-758h-254v735q0 29 -4 51.5t-15 46.5t-36 37t-63 13q-49 0 -107 -21.5t-89 -40t-75 -47.5v-774h-254z" />
<glyph unicode="o" horiz-adv-x="1130" d="M72 532q0 118 31 218t90.5 176t155 118.5t216.5 42.5q124 0 220 -44.5t155 -121.5t89 -175.5t30 -213.5q0 -255 -132.5 -405t-361.5 -150q-157 0 -270 73t-168 196.5t-55 285.5zM334 532q0 -59 9.5 -115.5t33 -115.5t71.5 -95t115 -36q45 0 82 16t61 41t42 60.5t27 68 t14.5 70t6.5 60.5t1 46q0 30 -2.5 60.5t-10 75t-24 82t-40.5 71.5t-64 54t-91 20q-48 0 -86 -18t-62.5 -49.5t-41.5 -67.5t-25.5 -79.5t-12 -78.5t-3.5 -70z" />
<glyph unicode="p" horiz-adv-x="1167" d="M139 -397v1462h246v-113q29 28 48.5 44t59 41t88 37.5t105.5 12.5q130 0 224.5 -77t140 -200.5t45.5 -277.5q0 -156 -48 -280.5t-145 -199.5t-227 -75q-54 0 -100 11t-83 34t-54.5 36.5t-45.5 39.5v-495h-254zM393 274q103 -92 213 -92q105 0 166.5 98.5t61.5 258.5 q0 56 -10 110.5t-32.5 109.5t-68 89.5t-107.5 34.5q-41 0 -77.5 -10.5t-67.5 -31t-44 -31t-34 -30.5v-506z" />
<glyph unicode="q" horiz-adv-x="1167" d="M72 530q0 112 27 211.5t77.5 177t131.5 123t181 45.5q58 0 109.5 -14t91 -40t60 -43t45.5 -42l28 117h205v-1462h-254v495q-25 -24 -45 -40t-55.5 -37.5t-81.5 -32.5t-100 -11q-133 0 -230 77.5t-143.5 201t-46.5 274.5zM334 532q0 -154 59.5 -252t169.5 -98 q108 0 211 92v514q-102 95 -213 95q-63 0 -110 -33t-71 -87.5t-35 -111.5t-11 -119z" />
<glyph unicode="r" horiz-adv-x="825" d="M143 0v1065h246v-197q152 219 346 219q36 0 60 -6v-239q-20 4 -74 4q-46 0 -100.5 -21t-105 -59.5t-84.5 -102t-34 -139.5v-524h-254z" />
<glyph unicode="s" horiz-adv-x="921" d="M66 774q0 70 25.5 125.5t66.5 89.5t96 57t109.5 32t111.5 9q82 0 153.5 -17t102 -31.5t70.5 -37.5v-223q-42 32 -75 52.5t-102.5 42.5t-144.5 22q-166 0 -166 -100q0 -44 37.5 -68t198.5 -88q167 -66 241 -143t74 -197q0 -155 -109.5 -238.5t-299.5 -83.5q-92 0 -174 20 t-119.5 38t-87.5 47v223q99 -69 184 -102t182 -33q73 0 124.5 24t51.5 82q0 45 -40 76t-154 74q-53 20 -83.5 32.5t-73.5 33t-67.5 38.5t-53 44t-43.5 54t-25 65.5t-10 80.5z" />
<glyph unicode="t" horiz-adv-x="679" d="M33 872v193h164v350h254v-350h192v-193h-192v-553q0 -35 3.5 -57.5t15.5 -45.5t39 -34.5t69 -11.5q33 0 73 8v-192q-74 -9 -119 -9q-83 0 -143.5 17t-97 44.5t-58 71t-29 89.5t-7.5 106v567h-164z" />
<glyph unicode="u" horiz-adv-x="1173" d="M133 319v746h254v-733q0 -23 1 -37t7 -38t17.5 -38t35.5 -25.5t58 -11.5q108 0 270 109v774h254v-1065h-254v121q-50 -34 -73.5 -48.5t-76 -42.5t-103 -40.5t-103.5 -12.5q-59 0 -106 16t-76.5 39t-51 58.5t-31.5 64t-15.5 67t-6 56t-0.5 41.5z" />
<glyph unicode="v" horiz-adv-x="987" d="M16 1065h256l224 -754l225 754h250l-334 -1065h-291z" />
<glyph unicode="w" horiz-adv-x="1452" d="M16 1065h242l191 -637l188 637h180l193 -643l186 643h240l-328 -1065h-178l-203 678l-199 -678h-178z" />
<glyph unicode="x" horiz-adv-x="964" d="M12 0l336 545l-319 520h284l172 -297l172 297h279l-320 -516l336 -549h-284l-189 324l-188 -324h-279z" />
<glyph unicode="y" horiz-adv-x="978" d="M20 1065h254l220 -709l217 709h252l-320 -1002q-39 -124 -74.5 -202t-87 -140.5t-121 -90t-165.5 -27.5q-57 0 -148 6v192q62 -12 98 -12q103 0 153 43t75 133z" />
<glyph unicode="z" horiz-adv-x="983" d="M70 0v186l536 678h-491v201h790v-188l-534 -672h534v-205h-835z" />
<glyph unicode="{" horiz-adv-x="784" d="M49 453v229q52 9 80.5 19t57 34t41 65.5t20.5 108t8 168.5q0 95 9.5 162t35.5 125t71.5 92.5t119 54t176.5 19.5h59v-221q-123 0 -165 -50.5t-42 -199.5q0 -64 -3 -117t-7 -94t-14 -75t-17 -57t-23.5 -44.5t-26.5 -33t-33 -27t-35.5 -22.5t-41.5 -22q45 -21 74 -41.5 t55.5 -56.5t40.5 -86.5t22.5 -126.5t8.5 -182q0 -150 41.5 -200t165.5 -50v-221h-59q-124 0 -203.5 24t-126 80.5t-64.5 138.5t-18 209q0 95 -6.5 158t-19.5 106t-39.5 69t-58 40t-83.5 25z" />
<glyph unicode="|" horiz-adv-x="1062" d="M424 -512v2226h213v-2226h-213z" />
<glyph unicode="}" horiz-adv-x="784" d="M57 -176q124 0 165.5 50t41.5 200q0 106 8.5 182t22.5 126.5t40.5 86.5t55.5 56.5t74 41.5q-29 15 -41.5 22t-35.5 22.5t-33 27t-26.5 33t-23.5 44.5t-17 57t-14 75t-7 94t-3 117q0 149 -42 199.5t-165 50.5v221h60q103 0 176 -19.5t119 -54t71.5 -93t35 -125t9.5 -161.5 q0 -102 8 -168.5t20.5 -108t41 -65.5t57 -34t80.5 -19v-229q-52 -11 -83.5 -25t-58 -40t-39.5 -69t-19.5 -106t-6.5 -158q0 -128 -17.5 -209t-64 -138t-126 -81t-203.5 -24h-60v221z" />
<glyph unicode="~" horiz-adv-x="1366" d="M125 575v224q158 137 319 137q55 0 114 -18t157 -64q90 -43 138 -59.5t91 -16.5q129 0 295 146v-224q-171 -135 -303 -135q-66 0 -125.5 19.5t-181.5 77.5q-132 61 -199 61q-144 0 -305 -148z" />
<glyph unicode="&#xa1;" horiz-adv-x="534" d="M115 -369l45 985h215l45 -985h-305zM129 776v311h277v-311h-277z" />
<glyph unicode="&#xa2;" horiz-adv-x="913" d="M72 487q0 73 15.5 143.5t52 139t89.5 120t134 83t180 31.5q24 0 80 -7l176 504h166l-189 -543q36 -16 70 -36v-215q-84 59 -129 79l-213 -614q28 -8 74 -8q59 0 116 19.5t89.5 39.5t80.5 56v-216q-147 -83 -321 -83q-65 0 -105 8l-139 -400h-168l160 455 q-88 55 -153.5 168.5t-65.5 275.5zM322 489q0 -131 49 -215l190 543q-63 -2 -111 -32t-75 -78t-40 -103t-13 -115z" />
<glyph unicode="&#xa3;" d="M90 649v197h184q-60 139 -78 194t-18 121q0 163 130 266t339 103q182 0 342 -84v-256q-181 98 -323 98q-84 0 -144.5 -40t-60.5 -122q0 -62 39 -145q5 -13 31 -67.5t30 -67.5h268v-197h-225q12 -58 12 -100q0 -60 -13.5 -109.5t-40.5 -85.5t-43 -52t-44 -40 q85 2 131.5 -3.5t130.5 -27.5q98 -24 148 -24q85 0 217 65v-235q-111 -66 -211 -66q-51 0 -191 29q-182 37 -258 37q-122 0 -317 -66v242q48 34 74.5 54.5t57 52t45.5 61t25.5 71.5t10.5 93q0 27 -10 104h-238z" />
<glyph unicode="&#xa4;" d="M8 807l35 178h82q58 264 223 404.5t414 140.5q79 0 154 -14.5t113 -28t101 -39.5v-285q-166 133 -358 133q-127 0 -232 -81t-134 -230h667l-37 -178h-653q-2 -20 -2 -64q0 -33 2 -49h633l-37 -178h-573q17 -81 57 -143t93.5 -97.5t112.5 -53t122 -17.5q190 0 358 123 v-279q-184 -78 -389 -78q-247 0 -424 151.5t-211 393.5h-115l35 178h57q-2 20 -2 56q0 43 2 57h-94z" />
<glyph unicode="&#xa5;" horiz-adv-x="1191" d="M20 1501h310l272 -543l266 543h303l-301 -579h242v-193h-342l-31 -61v-129h373v-193h-373v-346h-282v346h-377v193h377v129l-31 61h-346v193h246z" />
<glyph unicode="&#xa6;" horiz-adv-x="1062" d="M424 -358v716h213v-716h-213zM424 666v716h213v-716h-213z" />
<glyph unicode="&#xa7;" horiz-adv-x="1001" d="M61 584q0 76 31 141.5t76.5 110t114.5 90.5q-77 63 -115.5 125t-38.5 149q0 65 23 120t61.5 93t90.5 65t109.5 39.5t118.5 12.5q100 0 183 -27t174 -84v-266q-177 162 -340 162q-75 0 -114.5 -31.5t-39.5 -79.5q0 -41 29.5 -74t122.5 -102q22 -16 73 -52t78.5 -57 t71.5 -57.5t69 -67.5t51 -71.5t38 -85.5t12 -94q0 -106 -57 -186t-160 -154q75 -60 112 -124.5t37 -150.5q0 -104 -59.5 -179.5t-148.5 -110.5t-191 -35q-186 0 -360 110v267q95 -83 171 -122.5t169 -39.5q153 0 153 102q0 43 -38 86t-140 115q-12 8 -53 37t-57 41 t-53.5 40.5t-55 46.5t-46 47.5t-43 55t-30.5 57.5t-22.5 66.5t-6.5 71.5zM315 596q0 -32 11.5 -60t35.5 -54t42 -41.5t51 -39.5l116 -88q55 54 85 101.5t30 107.5q0 54 -42.5 105t-113.5 106l-96 74q-61 -51 -90 -99t-29 -112z" />
<glyph unicode="&#xa8;" horiz-adv-x="681" d="M8 1223v254h254v-254h-254zM420 1223v254h254v-254h-254z" />
<glyph unicode="&#xa9;" horiz-adv-x="1671" d="M82 776q0 153 60 292.5t161 240.5t240.5 161t292.5 60t292.5 -60t240.5 -161t160.5 -240.5t59.5 -292.5t-59.5 -292.5t-160.5 -240.5t-240.5 -160.5t-292.5 -59.5t-292.5 59.5t-240.5 160.5t-161 240.5t-60 292.5zM254 776q0 -158 78 -292t212 -211.5t292 -77.5t292 77.5 t211.5 211.5t77.5 292t-77.5 292t-211.5 212t-292 78t-292 -78t-212 -212t-78 -292zM463 774q0 96 26.5 174t68.5 127.5t97.5 82.5t109.5 47t109 14q143 0 259 -89v-180q-70 56 -120 79.5t-122 23.5q-117 0 -180.5 -74.5t-63.5 -200.5q0 -27 3 -54t17 -71t37.5 -75.5 t71.5 -55.5t113 -24q69 0 121 21.5t133 78.5v-176q-34 -25 -62.5 -41t-85 -31.5t-121.5 -15.5q-180 0 -295.5 114.5t-115.5 325.5z" />
<glyph unicode="&#xaa;" horiz-adv-x="706" d="M35 1024q0 46 15.5 81.5t47 60t63.5 39.5t79 30l202 63q0 26 -2 38t-11 27t-32 20.5t-61 5.5q-108 0 -258 -97v166q37 20 65 32t90 26t129 14q147 0 208 -56.5t61 -183.5v-442h-154l-16 59q-90 -71 -203 -71q-99 0 -161 54.5t-62 133.5zM227 1038q0 -21 9.5 -35.5t24 -20 t24 -7.5t18.5 -2q70 0 139 65v127l-120 -39q-48 -15 -71.5 -34t-23.5 -54z" />
<glyph unicode="&#xab;" horiz-adv-x="1296" d="M39 532l393 476h299l-393 -476l393 -473h-299zM565 532l393 476h299l-393 -476l393 -473h-299z" />
<glyph unicode="&#xac;" horiz-adv-x="1366" d="M125 883v213h1114v-693h-213v480h-901z" />
<glyph unicode="&#xad;" horiz-adv-x="671" d="M72 426v213h528v-213h-528z" />
<glyph unicode="&#xae;" horiz-adv-x="929" d="M55 1120q0 169 120.5 289.5t289.5 120.5t289 -120.5t120 -289.5t-120 -289t-289 -120t-289.5 120t-120.5 289zM166 1120q0 -124 87 -211.5t212 -87.5t212 87.5t87 211.5t-87 211.5t-212 87.5t-212 -87.5t-87 -211.5zM309 901v449h160q29 0 55 -5t55.5 -17.5t47.5 -41 t18 -69.5q0 -89 -100 -125l114 -191h-116l-103 174h-14v-174h-117zM426 1169h33q65 0 65 43t-67 43h-31v-86z" />
<glyph unicode="&#xaf;" horiz-adv-x="681" d="M20 1307v172h642v-172h-642z" />
<glyph unicode="&#xb0;" horiz-adv-x="802" d="M115 1245q0 118 84.5 201.5t201.5 83.5q119 0 203 -84t84 -201q0 -119 -84.5 -204t-200.5 -85q-119 0 -203.5 84t-84.5 205zM258 1245q0 -60 42 -102.5t103 -42.5q60 0 101 41.5t41 101.5q0 61 -41.5 102t-100.5 41q-61 0 -103 -41.5t-42 -99.5z" />
<glyph unicode="&#xb1;" horiz-adv-x="1366" d="M127 14v213h1112v-213h-1112zM127 825v213h451v449h213v-449h448v-213h-448v-450h-213v450h-451z" />
<glyph unicode="&#xb2;" horiz-adv-x="733" d="M29 745q7 36 13.5 64.5t16.5 56t16.5 46.5t22 41.5t25 36t32 34.5t36.5 33t46 35.5t52 37.5t63 44q79 55 103 82.5t24 54.5q0 75 -131 75q-73 0 -141.5 -25.5t-151.5 -78.5v172q150 76 301 76q66 0 120.5 -14.5t89.5 -37t58.5 -52t33.5 -59t10 -58.5q0 -30 -8.5 -54.5 t-22 -45t-50 -51t-70.5 -56t-105 -76.5q-88 -62 -112.5 -86t-35.5 -57h418v-138h-653z" />
<glyph unicode="&#xb3;" horiz-adv-x="733" d="M59 780v162q51 -23 83.5 -35t83.5 -23.5t100 -11.5q64 0 105.5 22.5t41.5 72.5q0 108 -190 108h-103v131q78 2 133 10t83 17.5t43 24.5t17.5 25t2.5 26q0 80 -127 80q-66 0 -124 -20t-142 -64v163q145 62 276 62q149 0 225 -63.5t76 -151.5q0 -66 -35.5 -102.5 t-97.5 -63.5q21 -7 34.5 -12.5t37.5 -21t38.5 -34t26.5 -50t12 -70.5q0 -108 -94 -169t-233 -61q-118 0 -273 49z" />
<glyph unicode="&#xb4;" horiz-adv-x="681" d="M174 1200l195 365h274l-285 -365h-184z" />
<glyph unicode="&#xb6;" horiz-adv-x="1171" d="M23 1057q0 86 27.5 163t83 141t150.5 102t218 38h649v-172h-117v-1726h-229v1726h-148v-1726h-229v1044q-186 0 -295.5 112.5t-109.5 297.5z" />
<glyph unicode="&#xb7;" horiz-adv-x="524" d="M115 586v327h295v-327h-295z" />
<glyph unicode="&#xb8;" horiz-adv-x="681" d="M33 -362l59 122q92 -30 184 -30q95 0 95 55q0 25 -22.5 41.5t-58.5 22.5t-58.5 8t-45.5 2l97 174h127l-50 -88q24 -6 40 -11t43 -19t44 -31t30 -46.5t13 -66.5q0 -76 -60 -127.5t-191 -51.5q-126 0 -246 46z" />
<glyph unicode="&#xb9;" horiz-adv-x="733" d="M127 1286v131q119 31 229 99h150v-642h139v-129h-498v129h166v467q-73 -32 -186 -55z" />
<glyph unicode="&#xba;" horiz-adv-x="735" d="M35 1182q0 71 19 132t58 110t104.5 77.5t150.5 28.5q87 0 153.5 -29t104.5 -79.5t56.5 -110.5t18.5 -129q0 -151 -86.5 -248.5t-244.5 -97.5t-246 95t-88 251zM229 1182q0 -20 2 -41t10.5 -52t22 -54t40.5 -39.5t63 -16.5q45 0 75.5 23t43 60t16.5 64.5t4 55.5 q0 36 -5.5 67.5t-19 64.5t-43 52.5t-71.5 19.5q-41 0 -70.5 -21t-43 -55t-19 -65t-5.5 -63z" />
<glyph unicode="&#xbb;" horiz-adv-x="1296" d="M39 59l393 473l-393 476h299l393 -476l-393 -473h-299zM565 59l393 473l-393 476h299l393 -476l-393 -473h-299z" />
<glyph unicode="&#xbc;" horiz-adv-x="1798" d="M127 1286v131q119 31 229 99h150v-642h139v-129h-498v129h166v467q-73 -32 -186 -55zM424 -29l889 1559h162l-889 -1559h-162zM1073 150v129l357 491h231v-481h98v-139h-98v-150h-184v150h-404zM1260 289h217v303z" />
<glyph unicode="&#xbd;" horiz-adv-x="1798" d="M127 1286v131q119 31 229 99h150v-642h139v-129h-498v129h166v467q-73 -32 -186 -55zM373 -29l889 1559h163l-888 -1559h-164zM1094 0q7 36 13.5 64.5t16.5 56t16.5 46.5t22.5 41t24.5 35.5t32 35t36.5 32.5t46 35.5t52 37.5t63 44q79 55 103 82.5t24 54.5q0 76 -131 76 q-73 0 -141.5 -25.5t-151.5 -78.5v172q148 75 301 75q66 0 120.5 -14.5t89.5 -37t58.5 -52t33.5 -59t10 -58.5q0 -25 -4 -44.5t-18.5 -41t-29 -37.5t-50 -44.5t-65 -50t-89.5 -64.5q-87 -62 -112 -86.5t-36 -57.5h418v-137h-653z" />
<glyph unicode="&#xbe;" horiz-adv-x="1798" d="M59 780v162q51 -23 83.5 -35t83.5 -23.5t100 -11.5q64 0 105.5 22.5t41.5 72.5q0 108 -190 108h-103v131q78 2 133 10t83 17.5t43 24.5t17.5 25t2.5 26q0 80 -127 80q-66 0 -124 -20t-142 -64v163q145 62 276 62q149 0 225 -63.5t76 -151.5q0 -66 -35.5 -102.5 t-97.5 -63.5q21 -7 34.5 -12.5t37.5 -21t38.5 -34t26.5 -50t12 -70.5q0 -108 -94 -169t-233 -61q-118 0 -273 49zM399 -29l889 1559h162l-889 -1559h-162zM1073 150v129l357 491h231v-481h98v-139h-98v-150h-184v150h-404zM1260 289h217v303z" />
<glyph unicode="&#xbf;" horiz-adv-x="944" d="M72 -45q0 31 4 56t19.5 68.5t56.5 96t104 109.5q55 48 89 89t49 78.5t19.5 65.5t4.5 70v28h221v-67q0 -106 -33.5 -180.5t-128.5 -169.5q-74 -76 -94.5 -118.5t-20.5 -94.5q0 -39 17 -68.5t43 -44.5t52 -22t50 -7q52 0 106 16t111.5 49t85 51.5t76.5 53.5v-288 q-209 -123 -424 -123q-109 0 -200.5 40.5t-149 122t-57.5 189.5zM389 776v311h277v-311h-277z" />
<glyph unicode="&#xc0;" horiz-adv-x="1341" d="M20 0l506 1501h289l506 -1501h-281l-100 315h-547l-100 -315h-273zM369 2001h274l195 -365h-185zM461 524h411l-206 656z" />
<glyph unicode="&#xc1;" horiz-adv-x="1341" d="M20 0l506 1501h289l506 -1501h-281l-100 315h-547l-100 -315h-273zM461 524h411l-206 656zM504 1636l194 365h275l-285 -365h-184z" />
<glyph unicode="&#xc2;" horiz-adv-x="1341" d="M20 0l506 1501h289l506 -1501h-281l-100 315h-547l-100 -315h-273zM332 1636l266 353h145l267 -353h-172l-166 160l-168 -160h-172zM461 524h411l-206 656z" />
<glyph unicode="&#xc3;" horiz-adv-x="1341" d="M20 0l506 1501h289l506 -1501h-281l-100 315h-547l-100 -315h-273zM330 1763q47 89 96 140t115 51q31 0 64.5 -13.5t53 -26t58.5 -40.5q57 -39 88 -39q32 0 55.5 22.5t54.5 71.5l97 -67q-57 -102 -104.5 -146.5t-104.5 -44.5q-30 0 -62.5 12t-48.5 22t-45 30 q-68 46 -87 52q-11 3 -25 3q-29 0 -51.5 -20.5t-57.5 -71.5zM461 524h411l-206 656z" />
<glyph unicode="&#xc4;" horiz-adv-x="1341" d="M20 0l506 1501h289l506 -1501h-281l-102 315h-543l-102 -315h-273zM336 1634v262h262v-262h-262zM465 524h403l-202 615zM743 1634v262h263v-262h-263z" />
<glyph unicode="&#xc5;" horiz-adv-x="1341" d="M20 0l506 1501h289l506 -1501h-281l-100 315h-547l-100 -315h-273zM446 1800q0 93 66.5 159t159.5 66q92 0 157.5 -65.5t65.5 -159.5q0 -93 -65 -158t-158 -65t-159.5 65t-66.5 158zM461 524h411l-206 656zM565 1802q0 -42 31 -74t74 -32q44 0 75 30.5t31 73.5 q0 44 -32 75.5t-74 31.5t-73.5 -31.5t-31.5 -73.5z" />
<glyph unicode="&#xc6;" horiz-adv-x="1929" d="M20 0l674 1501h1092v-241h-594v-381h557v-234h-557v-403h627v-242h-910v326h-469l-141 -326h-279zM535 539h374v721h-59z" />
<glyph unicode="&#xc7;" horiz-adv-x="1290" d="M82 737q0 116 23.5 226t77.5 214t133.5 181.5t201 124.5t270.5 47q72 0 135 -9t118 -28.5t82 -31.5t75 -36v-292q-39 31 -67.5 50.5t-80.5 47.5t-114.5 42.5t-132.5 14.5q-101 0 -179.5 -37t-124.5 -93.5t-75.5 -132t-40 -143.5t-10.5 -137q0 -65 9.5 -126.5t30 -122.5 t55.5 -111t83 -89t116.5 -61t151.5 -22q85 0 160.5 22t120 47.5t119.5 75.5v-286q-185 -96 -408 -101l-14 -26q24 -6 40 -11t43 -19t44 -31t30 -46.5t13 -66.5q0 -32 -13 -61.5t-40.5 -57t-79 -44t-121.5 -16.5q-124 0 -244 46l59 122q92 -30 183 -30q94 0 94 55 q0 25 -22 41.5t-57.5 22.5t-57.5 8t-45 2l65 118q-276 32 -441 238t-165 522z" />
<glyph unicode="&#xc8;" horiz-adv-x="1220" d="M172 0v1501h905v-241h-622v-381h585v-234h-585v-403h655v-242h-938zM340 2001h274l195 -365h-184z" />
<glyph unicode="&#xc9;" horiz-adv-x="1220" d="M172 0v1501h905v-241h-622v-381h585v-234h-585v-403h655v-242h-938zM444 1636l195 365h274l-284 -365h-185z" />
<glyph unicode="&#xca;" horiz-adv-x="1220" d="M172 0v1501h905v-241h-622v-381h585v-234h-585v-403h655v-242h-938zM303 1636l266 353h146l266 -353h-172l-166 160l-168 -160h-172z" />
<glyph unicode="&#xcb;" horiz-adv-x="1220" d="M172 0v1501h905v-241h-622v-381h585v-234h-585v-403h655v-242h-938zM311 1634v262h262v-262h-262zM719 1634v262h262v-262h-262z" />
<glyph unicode="&#xcc;" horiz-adv-x="651" d="M25 2001h274l195 -365h-185zM184 0v1501h283v-1501h-283z" />
<glyph unicode="&#xcd;" horiz-adv-x="651" d="M160 1636l194 365h275l-285 -365h-184zM184 0v1501h283v-1501h-283z" />
<glyph unicode="&#xce;" horiz-adv-x="651" d="M-12 1636l266 353h145l267 -353h-172l-166 160l-168 -160h-172zM184 0v1501h283v-1501h-283z" />
<glyph unicode="&#xcf;" horiz-adv-x="651" d="M-8 1634v262h262v-262h-262zM184 0v1501h283v-1501h-283zM399 1634v262h263v-262h-263z" />
<glyph unicode="&#xd0;" horiz-adv-x="1425" d="M23 651v199h149v651h496q147 0 269 -46t213.5 -136.5t142 -236t50.5 -334.5q0 -196 -52 -342.5t-146.5 -234t-217 -129.5t-274.5 -42h-481v651h-149zM455 242h196q186 0 294 137.5t108 380.5q0 134 -33.5 232.5t-95 156t-140.5 84.5t-178 27h-151v-410h295v-199h-295 v-409z" />
<glyph unicode="&#xd1;" horiz-adv-x="1476" d="M172 0v1501h289l577 -1018v1018h267v-1501h-267l-600 1053v-1053h-266zM397 1763q47 89 96 140t115 51q31 0 64.5 -13.5t53 -26t58.5 -40.5q57 -39 88 -39q32 0 56 23t55 71l96 -67q-57 -102 -104.5 -146.5t-104.5 -44.5q-30 0 -62.5 12t-47.5 21.5t-45 30.5 q-39 26 -51.5 34t-29 14.5t-32.5 6.5q-29 0 -51 -20t-57 -72z" />
<glyph unicode="&#xd2;" horiz-adv-x="1490" d="M82 750q0 169 44 312t126.5 247t208 162.5t280.5 58.5q208 0 360 -98.5t230 -274.5t78 -409q0 -167 -43.5 -308.5t-126 -246t-209 -163.5t-285.5 -59q-206 0 -357 99t-228.5 274t-77.5 406zM373 752q0 -81 11 -155.5t38.5 -145.5t69 -123t106.5 -83.5t147 -31.5 q78 0 140.5 27t101.5 74t66.5 101t40.5 118.5t18.5 114.5t5.5 100q0 70 -8.5 136.5t-34 142t-65 131.5t-108.5 93t-159 37q-80 0 -143.5 -30t-105.5 -80.5t-69.5 -120.5t-39.5 -145.5t-12 -159.5zM444 2001h275l194 -365h-184z" />
<glyph unicode="&#xd3;" horiz-adv-x="1490" d="M82 750q0 169 44 312t126.5 247t208 162.5t280.5 58.5q208 0 360 -98.5t230 -274.5t78 -409q0 -167 -43.5 -308.5t-126 -246t-209 -163.5t-285.5 -59q-206 0 -357 99t-228.5 274t-77.5 406zM373 752q0 -81 11 -155.5t38.5 -145.5t69 -123t106.5 -83.5t147 -31.5 q78 0 140.5 27t101.5 74t66.5 101t40.5 118.5t18.5 114.5t5.5 100q0 70 -8.5 136.5t-34 142t-65 131.5t-108.5 93t-159 37q-80 0 -143.5 -30t-105.5 -80.5t-69.5 -120.5t-39.5 -145.5t-12 -159.5zM580 1636l194 365h275l-285 -365h-184z" />
<glyph unicode="&#xd4;" horiz-adv-x="1490" d="M82 750q0 169 44 312t126.5 247t208 162.5t280.5 58.5q208 0 360 -98.5t230 -274.5t78 -409q0 -167 -43.5 -308.5t-126 -246t-209 -163.5t-285.5 -59q-206 0 -357 99t-228.5 274t-77.5 406zM373 752q0 -81 11 -155.5t38.5 -145.5t69 -123t106.5 -83.5t147 -31.5 q78 0 140.5 27t101.5 74t66.5 101t40.5 118.5t18.5 114.5t5.5 100q0 70 -8.5 136.5t-34 142t-65 131.5t-108.5 93t-159 37q-80 0 -143.5 -30t-105.5 -80.5t-69.5 -120.5t-39.5 -145.5t-12 -159.5zM408 1636l266 353h145l266 -353h-172l-165 160l-168 -160h-172z" />
<glyph unicode="&#xd5;" horiz-adv-x="1490" d="M82 750q0 169 44 312t126.5 247t208 162.5t280.5 58.5q208 0 360 -98.5t230 -274.5t78 -409q0 -167 -43.5 -308.5t-126 -246t-209 -163.5t-285.5 -59q-206 0 -357 99t-228.5 274t-77.5 406zM373 752q0 -81 11 -155.5t38.5 -145.5t69 -123t106.5 -83.5t147 -31.5 q78 0 140.5 27t101.5 74t66.5 101t40.5 118.5t18.5 114.5t5.5 100q0 70 -8.5 136.5t-34 142t-65 131.5t-108.5 93t-159 37q-80 0 -143.5 -30t-105.5 -80.5t-69.5 -120.5t-39.5 -145.5t-12 -159.5zM406 1763q22 42 41 71.5t45.5 59t57.5 45t66 15.5q31 0 64.5 -13t54 -26.5 t58.5 -40.5q57 -39 88 -39q32 0 55.5 22.5t54.5 71.5l96 -67q-57 -102 -104 -146.5t-104 -44.5q-30 0 -62.5 12t-48.5 22t-45 30q-39 26 -51.5 34t-29 14.5t-32.5 6.5q-29 0 -51 -20t-57 -72z" />
<glyph unicode="&#xd6;" horiz-adv-x="1490" d="M82 750q0 169 44 312t126.5 247t208 162.5t280.5 58.5q208 0 360 -98.5t230 -274.5t78 -409q0 -167 -43.5 -308.5t-126 -246t-209 -163.5t-285.5 -59q-206 0 -357 99t-228.5 274t-77.5 406zM373 752q0 -71 9 -139t34.5 -143t65.5 -130t108 -91t155 -36q78 0 140.5 27 t101.5 74t66.5 101t40.5 118.5t18.5 114.5t5.5 100q0 70 -8.5 136.5t-34 142t-65 131.5t-108.5 93t-159 37q-83 0 -149 -33t-106.5 -86t-67 -125t-37 -143.5t-10.5 -148.5zM412 1634v262h262v-262h-262zM819 1634v262h262v-262h-262z" />
<glyph unicode="&#xd7;" horiz-adv-x="1366" d="M158 377l372 373l-372 374l151 152l373 -373l375 373l151 -152l-374 -374l374 -373l-151 -152l-375 373l-373 -373z" />
<glyph unicode="&#xd8;" horiz-adv-x="1490" d="M82 96l127 156q-64 97 -95.5 233t-31.5 267q0 166 43.5 307.5t125 246.5t207.5 164.5t283 59.5q234 0 406 -133l108 133l154 -125l-127 -156q127 -207 127 -501q0 -168 -44 -309.5t-126.5 -246t-209 -163t-284.5 -58.5q-236 0 -403 131l-106 -131zM373 756 q0 -147 35 -262l573 700q-94 94 -238 94q-70 0 -128 -23t-97.5 -64t-68.5 -92t-45 -112.5t-23.5 -120.5t-7.5 -120zM510 307q85 -94 238 -94q83 0 148.5 32.5t106 85t67.5 123t37.5 141.5t10.5 146q0 136 -35 267z" />
<glyph unicode="&#xd9;" horiz-adv-x="1466" d="M156 537v964h282v-938q0 -71 15.5 -131t48 -110.5t92 -79.5t139.5 -29q65 0 116.5 19.5t84.5 52t54.5 78t30.5 95t9 105.5v938h283v-962q0 -279 -149 -423.5t-427 -144.5q-281 0 -430 144t-149 422zM432 2001h275l194 -365h-184z" />
<glyph unicode="&#xda;" horiz-adv-x="1466" d="M156 537v964h282v-938q0 -71 15.5 -131t48 -110.5t92 -79.5t139.5 -29q65 0 116.5 19.5t84.5 52t54.5 78t30.5 95t9 105.5v938h283v-962q0 -279 -149 -423.5t-427 -144.5q-281 0 -430 144t-149 422zM567 1636l195 365h274l-284 -365h-185z" />
<glyph unicode="&#xdb;" horiz-adv-x="1466" d="M156 537v964h282v-938q0 -71 15.5 -131t48 -110.5t92 -79.5t139.5 -29q65 0 116.5 19.5t84.5 52t54.5 78t30.5 95t9 105.5v938h283v-962q0 -279 -149 -423.5t-427 -144.5q-281 0 -430 144t-149 422zM395 1636l267 353h145l266 -353h-172l-166 160l-168 -160h-172z" />
<glyph unicode="&#xdc;" horiz-adv-x="1466" d="M156 537v964h282v-938q0 -71 15.5 -131t48 -110.5t92 -79.5t139.5 -29q65 0 116.5 19.5t84.5 52t54.5 78t30.5 95t9 105.5v938h283v-962q0 -279 -149 -423.5t-427 -144.5q-281 0 -430 144t-149 422zM399 1636v260h260v-260h-260zM807 1636v260h260v-260h-260z" />
<glyph unicode="&#xdd;" horiz-adv-x="1191" d="M20 1501h310l272 -543l266 543h303l-432 -831v-670h-282v670zM430 1636l195 365h274l-285 -365h-184z" />
<glyph unicode="&#xde;" horiz-adv-x="1320" d="M172 0v1501h283v-289h229q278 0 421.5 -119.5t143.5 -324.5q0 -230 -145.5 -354.5t-419.5 -124.5h-229v-289h-283zM455 526h213q145 0 217.5 64t72.5 166q0 44 -14.5 81t-46 68t-88.5 48.5t-135 17.5h-219v-445z" />
<glyph unicode="&#xdf;" horiz-adv-x="1095" d="M115 0v1020q0 230 118.5 355.5t311.5 125.5q90 0 163.5 -24t120.5 -61.5t79 -86.5t45.5 -96.5t13.5 -93.5q0 -51 -14 -95.5t-30.5 -72t-45.5 -54t-44 -36.5t-40 -25q35 -19 58 -34t65 -53.5t68 -81.5t46.5 -115t20.5 -156q0 -196 -108.5 -317.5t-276.5 -121.5 q-49 0 -91.5 10t-62 19.5t-49.5 26.5v205q25 -21 43 -33.5t56.5 -26.5t78.5 -14q74 0 110.5 72t36.5 186q0 65 -11 116.5t-26.5 85t-42.5 58.5t-48 37.5t-54 20.5t-51 10t-47 4v170q33 1 57 5.5t52 16.5t46 32.5t30 56.5t12 85q0 88 -43.5 140.5t-120.5 52.5 q-45 0 -78 -19.5t-51 -48t-28 -72t-12.5 -79t-2.5 -82.5v-1012h-254z" />
<glyph unicode="&#xe0;" horiz-adv-x="1087" d="M72 270q0 47 10.5 86.5t37.5 84t84.5 82.5t141.5 67l305 102q33 11 40 17.5t7 29.5v43q0 117 -180 117q-175 0 -381 -143v221q192 110 420 110q96 0 167.5 -19.5t114.5 -51t69 -80.5t35 -100t9 -117v-719h-204l-29 113q-40 -36 -76 -61.5t-104 -50t-142 -24.5 q-142 0 -233.5 82.5t-91.5 210.5zM242 1565h274l195 -365h-185zM330 291q0 -30 10 -54t25 -37.5t34.5 -22.5t36 -12t31.5 -3q114 0 231 119v262q-16 -13 -65 -31l-160 -57q-78 -29 -110.5 -67.5t-32.5 -96.5z" />
<glyph unicode="&#xe1;" horiz-adv-x="1087" d="M72 270q0 47 10.5 86.5t37.5 84t84.5 82.5t141.5 67l305 102q33 11 40 17.5t7 29.5v43q0 117 -180 117q-175 0 -381 -143v221q192 110 420 110q96 0 167.5 -19.5t114.5 -51t69 -80.5t35 -100t9 -117v-719h-204l-29 113q-40 -36 -76 -61.5t-104 -50t-142 -24.5 q-142 0 -233.5 82.5t-91.5 210.5zM330 291q0 -30 10 -54t25 -37.5t34.5 -22.5t36 -12t31.5 -3q114 0 231 119v262q-16 -13 -65 -31l-160 -57q-78 -29 -110.5 -67.5t-32.5 -96.5zM377 1200l194 365h275l-285 -365h-184z" />
<glyph unicode="&#xe2;" horiz-adv-x="1087" d="M72 270q0 47 10.5 86.5t37.5 84t84.5 82.5t141.5 67l305 102q33 11 40 17.5t7 29.5v43q0 117 -180 117q-175 0 -381 -143v221q192 110 420 110q96 0 167.5 -19.5t114.5 -51t69 -80.5t35 -100t9 -117v-719h-204l-29 113q-40 -36 -76 -61.5t-104 -50t-142 -24.5 q-142 0 -233.5 82.5t-91.5 210.5zM205 1200l266 352h145l267 -352h-172l-166 160l-168 -160h-172zM330 291q0 -30 10 -54t25 -37.5t34.5 -22.5t36 -12t31.5 -3q114 0 231 119v262q-16 -13 -65 -31l-160 -57q-78 -29 -110.5 -67.5t-32.5 -96.5z" />
<glyph unicode="&#xe3;" horiz-adv-x="1087" d="M72 270q0 47 10.5 86.5t37.5 84t84.5 82.5t141.5 67l305 102q33 11 40 17.5t7 29.5v43q0 117 -180 117q-175 0 -381 -143v221q192 110 420 110q96 0 167.5 -19.5t114.5 -51t69 -80.5t35 -100t9 -117v-719h-204l-29 113q-40 -36 -76 -61.5t-104 -50t-142 -24.5 q-142 0 -233.5 82.5t-91.5 210.5zM203 1327q47 89 96 140t115 51q31 0 64.5 -13.5t53 -26t58.5 -40.5q57 -39 88 -39q32 0 55.5 22.5t54.5 71.5l97 -68q-57 -102 -104.5 -146t-104.5 -44q-30 0 -62.5 11.5t-49 22t-44.5 29.5q-7 5 -18.5 13t-16.5 11t-13.5 8.5t-12.5 7.5 t-10.5 6t-10.5 5t-9.5 2.5t-10 2t-10.5 0.5q-29 0 -51.5 -20.5t-57.5 -71.5zM330 291q0 -30 10 -54t25 -37.5t34.5 -22.5t36 -12t31.5 -3q114 0 231 119v262q-16 -13 -65 -31l-160 -57q-78 -29 -110.5 -67.5t-32.5 -96.5z" />
<glyph unicode="&#xe4;" horiz-adv-x="1087" d="M72 270q0 47 10.5 86.5t37.5 84t84.5 82.5t141.5 67l305 102q33 11 40 17.5t7 29.5v43q0 117 -180 117q-175 0 -381 -143v221q192 110 420 110q96 0 167.5 -19.5t114.5 -51t69 -80.5t35 -100t9 -117v-719h-204l-29 113q-40 -36 -76 -61.5t-104 -50t-142 -24.5 q-142 0 -233.5 82.5t-91.5 210.5zM211 1223v254h254v-254h-254zM330 291q0 -30 10 -54t25 -37.5t34.5 -22.5t36 -12t31.5 -3q114 0 231 119v262q-16 -13 -65 -31l-160 -57q-78 -29 -110.5 -67.5t-32.5 -96.5zM623 1223v254h254v-254h-254z" />
<glyph unicode="&#xe5;" horiz-adv-x="1087" d="M72 270q0 47 10.5 86.5t37.5 84t84.5 82.5t141.5 67l305 102q33 11 40 17.5t7 29.5v43q0 117 -180 117q-175 0 -381 -143v221q192 110 420 110q96 0 167.5 -19.5t114.5 -51t69 -80.5t35 -100t9 -117v-719h-204l-29 113q-40 -36 -76 -61.5t-104 -50t-142 -24.5 q-142 0 -233.5 82.5t-91.5 210.5zM319 1376q0 93 66.5 159.5t159.5 66.5t158 -66t65 -160q0 -93 -65 -158t-156 -65q-97 0 -162.5 65.5t-65.5 157.5zM330 291q0 -30 10 -54t25 -37.5t34.5 -22.5t36 -12t31.5 -3q114 0 231 119v262q-16 -13 -65 -31l-160 -57 q-78 -29 -110.5 -67.5t-32.5 -96.5zM438 1378q0 -42 31.5 -74t71.5 -32q46 0 77 31t31 73q0 44 -31.5 75.5t-74.5 31.5q-42 0 -73.5 -31.5t-31.5 -73.5z" />
<glyph unicode="&#xe6;" horiz-adv-x="1681" d="M72 270q0 59 19.5 112t65.5 102t115 86t175 61.5t239 30.5v108q0 129 -170 129q-60 0 -118 -14t-112.5 -41.5t-80.5 -43.5t-68 -44v221q50 28 91 47.5t129.5 41t183.5 21.5q64 0 118 -12t85.5 -26t60 -38t38 -35.5t23.5 -31.5q54 63 127.5 103t186.5 40 q187 0 313.5 -133.5t126.5 -363.5v-101h-680q21 -319 297 -319q56 0 104.5 9.5t93 30.5t68 35t66.5 42v-217q-30 -18 -53 -29.5t-68 -28.5t-103 -26t-126 -9q-77 0 -142.5 13.5t-105 30.5t-77 45.5t-51.5 43.5t-34 40q-46 -39 -76 -61t-83.5 -52.5t-116.5 -45t-136 -14.5 q-139 0 -232 79.5t-93 213.5zM330 291q0 -67 41 -98t94 -31q64 0 130 41t122 110q-24 97 -31 176q-356 -13 -356 -198zM944 662h438q-13 122 -70.5 179.5t-140.5 57.5q-96 0 -154 -61.5t-73 -175.5z" />
<glyph unicode="&#xe7;" horiz-adv-x="980" d="M72 530q0 121 34.5 223t100 176.5t165.5 116t226 41.5q174 0 313 -77v-232q-37 31 -64 50t-86.5 40t-125.5 21q-144 0 -225.5 -101t-81.5 -256q0 -41 6.5 -83t26 -93t51 -89.5t87.5 -64.5t128 -26q51 0 97.5 10t87 30t63.5 34.5t57 38.5v-226q-137 -76 -303 -86l-19 -32 q24 -6 40 -11t43 -19t44 -31t30 -46.5t13 -66.5q0 -19 -5 -40t-22 -46.5t-43 -45.5t-73.5 -33.5t-108.5 -13.5q-125 0 -245 46l59 122q92 -30 182 -30q94 0 94 55q0 25 -22 41.5t-57.5 22.5t-57.5 8t-45 2l70 123q-83 12 -150.5 43.5t-112 70.5t-77.5 90.5t-50.5 97.5 t-28 97.5t-13 84.5t-2.5 64z" />
<glyph unicode="&#xe8;" horiz-adv-x="1085" d="M72 537q0 130 38.5 235.5t106 173.5t157.5 104.5t193 36.5q96 0 178 -32.5t145 -95.5t98.5 -163.5t35.5 -228.5v-90h-690q21 -307 299 -307q101 0 176 29t164 88v-217q-31 -18 -55 -29.5t-69.5 -28.5t-104.5 -26t-128 -9q-132 0 -232.5 38t-158 95t-93.5 135.5t-48 148 t-12 143.5zM242 1565h274l195 -365h-185zM338 649h448q-28 250 -217 250q-197 0 -231 -250z" />
<glyph unicode="&#xe9;" horiz-adv-x="1085" d="M72 537q0 130 38.5 235.5t106 173.5t157.5 104.5t193 36.5q96 0 178 -32.5t145 -95.5t98.5 -163.5t35.5 -228.5v-90h-690q21 -307 299 -307q101 0 176 29t164 88v-217q-31 -18 -55 -29.5t-69.5 -28.5t-104.5 -26t-128 -9q-132 0 -232.5 38t-158 95t-93.5 135.5t-48 148 t-12 143.5zM338 649h448q-28 250 -217 250q-197 0 -231 -250zM377 1200l194 365h275l-285 -365h-184z" />
<glyph unicode="&#xea;" horiz-adv-x="1085" d="M72 537q0 130 38.5 235.5t106 173.5t157.5 104.5t193 36.5q96 0 178 -32.5t145 -95.5t98.5 -163.5t35.5 -228.5v-90h-690q21 -307 299 -307q101 0 176 29t164 88v-217q-31 -18 -55 -29.5t-69.5 -28.5t-104.5 -26t-128 -9q-132 0 -232.5 38t-158 95t-93.5 135.5t-48 148 t-12 143.5zM205 1200l266 352h145l267 -352h-172l-166 160l-168 -160h-172zM338 649h448q-28 250 -217 250q-197 0 -231 -250z" />
<glyph unicode="&#xeb;" horiz-adv-x="1085" d="M72 537q0 130 38.5 235.5t106 173.5t157.5 104.5t193 36.5q96 0 178 -32.5t145 -95.5t98.5 -163.5t35.5 -228.5v-90h-690q21 -307 299 -307q101 0 176 29t164 88v-217q-31 -18 -55 -29.5t-69.5 -28.5t-104.5 -26t-128 -9q-132 0 -232.5 38t-158 95t-93.5 135.5t-48 148 t-12 143.5zM211 1223v254h254v-254h-254zM338 649h448q-28 250 -217 250q-197 0 -231 -250zM623 1223v254h254v-254h-254z" />
<glyph unicode="&#xec;" horiz-adv-x="561" d="M-20 1565h274l195 -365h-185zM154 0v1065h254v-1065h-254z" />
<glyph unicode="&#xed;" horiz-adv-x="561" d="M115 1200l194 365h275l-285 -365h-184zM154 0v1065h254v-1065h-254z" />
<glyph unicode="&#xee;" horiz-adv-x="561" d="M-57 1200l266 352h145l267 -352h-172l-166 160l-168 -160h-172zM154 0v1065h254v-1065h-254z" />
<glyph unicode="&#xef;" horiz-adv-x="561" d="M-51 1223v254h254v-254h-254zM154 0v1065h254v-1065h-254zM360 1223v254h254v-254h-254z" />
<glyph unicode="&#xf0;" horiz-adv-x="1130" d="M72 532q0 257 133 406t352 149q89 0 129 -30q-54 90 -119 176l-157 -98l-62 98l144 88q-14 16 -27 30t-26.5 26.5t-23 22t-23 21t-20.5 17.5t-21.5 17t-20 15t-21.5 16l-20 15h246q95 -85 100 -90l147 90l62 -98l-125 -78q117 -149 166 -227q174 -278 174 -576 q0 -87 -18.5 -166t-58 -148.5t-96.5 -120.5t-139.5 -80.5t-181.5 -29.5q-235 0 -364 153t-129 402zM334 532q0 -59 9.5 -115.5t33 -115.5t71.5 -95t115 -36q45 0 82 16t61 41t42 60.5t27 68t14.5 70t6.5 60.5t1 46q0 61 -10 118.5t-34 115.5t-72.5 93.5t-115.5 35.5 q-48 0 -86 -18t-62.5 -49.5t-41.5 -67.5t-25.5 -79.5t-12 -78.5t-3.5 -70z" />
<glyph unicode="&#xf1;" horiz-adv-x="1173" d="M143 0v1065h254v-121q43 30 72 48t78.5 43.5t101.5 38.5t105 13q76 0 132.5 -25.5t89.5 -72t48.5 -104t15.5 -127.5v-758h-254v735q0 29 -4 51.5t-15 46.5t-36 37t-63 13q-49 0 -107 -21.5t-89 -40t-75 -47.5v-774h-254zM246 1327q47 89 96 140t115 51q31 0 64.5 -13.5 t53 -26t58.5 -40.5q57 -39 88 -39q32 0 55.5 22.5t54.5 71.5l97 -68q-57 -102 -104.5 -146t-104.5 -44q-30 0 -62.5 11.5t-49 22t-44.5 29.5q-7 5 -18.5 13t-16.5 11t-13.5 8.5t-12.5 7.5t-10.5 6t-10.5 5t-9.5 2.5t-10 2t-10.5 0.5q-29 0 -51.5 -20.5t-57.5 -71.5z" />
<glyph unicode="&#xf2;" horiz-adv-x="1130" d="M72 532q0 118 31 218t90.5 176t155 118.5t216.5 42.5q124 0 220 -44.5t155 -121.5t89 -175.5t30 -213.5q0 -255 -132.5 -405t-361.5 -150q-157 0 -270 73t-168 196.5t-55 285.5zM264 1565h275l194 -365h-184zM334 532q0 -59 9.5 -115.5t33 -115.5t71.5 -95t115 -36 q45 0 82 16t61 41t42 60.5t27 68t14.5 70t6.5 60.5t1 46q0 30 -2.5 60.5t-10 75t-24 82t-40.5 71.5t-64 54t-91 20q-48 0 -86 -18t-62.5 -49.5t-41.5 -67.5t-25.5 -79.5t-12 -78.5t-3.5 -70z" />
<glyph unicode="&#xf3;" horiz-adv-x="1130" d="M72 532q0 118 31 218t90.5 176t155 118.5t216.5 42.5q124 0 220 -44.5t155 -121.5t89 -175.5t30 -213.5q0 -255 -132.5 -405t-361.5 -150q-157 0 -270 73t-168 196.5t-55 285.5zM334 532q0 -59 9.5 -115.5t33 -115.5t71.5 -95t115 -36q45 0 82 16t61 41t42 60.5t27 68 t14.5 70t6.5 60.5t1 46q0 30 -2.5 60.5t-10 75t-24 82t-40.5 71.5t-64 54t-91 20q-48 0 -86 -18t-62.5 -49.5t-41.5 -67.5t-25.5 -79.5t-12 -78.5t-3.5 -70zM399 1200l195 365h274l-284 -365h-185z" />
<glyph unicode="&#xf4;" horiz-adv-x="1130" d="M72 532q0 118 31 218t90.5 176t155 118.5t216.5 42.5q124 0 220 -44.5t155 -121.5t89 -175.5t30 -213.5q0 -255 -132.5 -405t-361.5 -150q-157 0 -270 73t-168 196.5t-55 285.5zM227 1200l267 352h145l266 -352h-172l-166 160l-168 -160h-172zM334 532q0 -59 9.5 -115.5 t33 -115.5t71.5 -95t115 -36q45 0 82 16t61 41t42 60.5t27 68t14.5 70t6.5 60.5t1 46q0 30 -2.5 60.5t-10 75t-24 82t-40.5 71.5t-64 54t-91 20q-48 0 -86 -18t-62.5 -49.5t-41.5 -67.5t-25.5 -79.5t-12 -78.5t-3.5 -70z" />
<glyph unicode="&#xf5;" horiz-adv-x="1130" d="M72 532q0 118 31 218t90.5 176t155 118.5t216.5 42.5q124 0 220 -44.5t155 -121.5t89 -175.5t30 -213.5q0 -255 -132.5 -405t-361.5 -150q-157 0 -270 73t-168 196.5t-55 285.5zM225 1327q47 89 96 140t115 51q31 0 64.5 -13.5t53 -26t58.5 -40.5q57 -39 88 -39 q32 0 56 23t55 71l96 -68q-57 -102 -104.5 -146t-104.5 -44q-30 0 -62.5 11.5t-48 21.5t-44.5 30q-69 46 -87 52q-13 4 -26 4q-29 0 -51 -20t-57 -72zM334 532q0 -59 9.5 -115.5t33 -115.5t71.5 -95t115 -36q45 0 82 16t61 41t42 60.5t27 68t14.5 70t6.5 60.5t1 46 q0 30 -2.5 60.5t-10 75t-24 82t-40.5 71.5t-64 54t-91 20q-48 0 -86 -18t-62.5 -49.5t-41.5 -67.5t-25.5 -79.5t-12 -78.5t-3.5 -70z" />
<glyph unicode="&#xf6;" horiz-adv-x="1130" d="M72 532q0 118 31 218t90.5 176t155 118.5t216.5 42.5q124 0 220 -44.5t155 -121.5t89 -175.5t30 -213.5q0 -255 -132.5 -405t-361.5 -150q-157 0 -270 73t-168 196.5t-55 285.5zM233 1223v254h254v-254h-254zM334 532q0 -59 9.5 -115.5t33 -115.5t71.5 -95t115 -36 q45 0 82 16t61 41t42 60.5t27 68t14.5 70t6.5 60.5t1 46q0 30 -2.5 60.5t-10 75t-24 82t-40.5 71.5t-64 54t-91 20q-48 0 -86 -18t-62.5 -49.5t-41.5 -67.5t-25.5 -79.5t-12 -78.5t-3.5 -70zM645 1223v254h254v-254h-254z" />
<glyph unicode="&#xf7;" horiz-adv-x="1366" d="M127 645v213h1112v-213h-1112zM555 203v254h254v-254h-254zM555 1047v251h254v-251h-254z" />
<glyph unicode="&#xf8;" horiz-adv-x="1130" d="M72 82l88 104q-88 140 -88 349q0 159 53.5 282t166.5 196.5t271 73.5q183 0 297 -88l76 88l123 -104l-88 -104q88 -140 88 -351q0 -247 -130.5 -399t-361.5 -152q-176 0 -297 89l-75 -89zM334 537q0 -61 12 -136l367 428q-55 66 -148 66q-55 0 -98 -25t-67 -62.5t-40 -88 t-21 -94.5t-5 -88zM418 236q55 -66 147 -66q53 0 94 21t65 57t40 73.5t22.5 83.5t8.5 73t2 54q0 57 -13 132z" />
<glyph unicode="&#xf9;" horiz-adv-x="1173" d="M133 319v746h254v-733q0 -23 1 -37t7 -38t17.5 -38t35.5 -25.5t58 -11.5q108 0 270 109v774h254v-1065h-254v121q-50 -34 -73.5 -48.5t-76 -42.5t-103 -40.5t-103.5 -12.5q-59 0 -106 16t-76.5 39t-51 58.5t-31.5 64t-15.5 67t-6 56t-0.5 41.5zM285 1565h274l195 -365 h-185z" />
<glyph unicode="&#xfa;" horiz-adv-x="1173" d="M133 319v746h254v-733q0 -23 1 -37t7 -38t17.5 -38t35.5 -25.5t58 -11.5q108 0 270 109v774h254v-1065h-254v121q-50 -34 -73.5 -48.5t-76 -42.5t-103 -40.5t-103.5 -12.5q-59 0 -106 16t-76.5 39t-51 58.5t-31.5 64t-15.5 67t-6 56t-0.5 41.5zM420 1200l194 365h275 l-285 -365h-184z" />
<glyph unicode="&#xfb;" horiz-adv-x="1173" d="M133 319v746h254v-733q0 -23 1 -37t7 -38t17.5 -38t35.5 -25.5t58 -11.5q108 0 270 109v774h254v-1065h-254v121q-50 -34 -73.5 -48.5t-76 -42.5t-103 -40.5t-103.5 -12.5q-59 0 -106 16t-76.5 39t-51 58.5t-31.5 64t-15.5 67t-6 56t-0.5 41.5zM248 1200l266 352h145 l267 -352h-172l-166 160l-168 -160h-172z" />
<glyph unicode="&#xfc;" horiz-adv-x="1173" d="M133 319v746h254v-733q0 -23 1 -37t7 -38t17.5 -38t35.5 -25.5t58 -11.5q108 0 270 109v774h254v-1065h-254v121q-50 -34 -73.5 -48.5t-76 -42.5t-103 -40.5t-103.5 -12.5q-59 0 -106 16t-76.5 39t-51 58.5t-31.5 64t-15.5 67t-6 56t-0.5 41.5zM254 1223v254h254v-254 h-254zM666 1223v254h254v-254h-254z" />
<glyph unicode="&#xfd;" horiz-adv-x="978" d="M20 1065h254l220 -709l217 709h252l-320 -1002q-39 -124 -74.5 -202t-87 -140.5t-121 -90t-165.5 -27.5q-57 0 -148 6v192q62 -12 98 -12q103 0 153 43t75 133zM324 1200l194 365h275l-285 -365h-184z" />
<glyph unicode="&#xfe;" horiz-adv-x="1167" d="M139 -397v1898h254v-540q26 25 46 41t57 38.5t85.5 34.5t104.5 12q84 0 153.5 -32t116 -86t79 -126t47 -150t14.5 -161q0 -156 -48 -280.5t-145 -199.5t-227 -75q-54 0 -100 11t-83 34t-54.5 36.5t-45.5 39.5v-495h-254zM393 274q103 -92 213 -92q105 0 166.5 98.5 t61.5 258.5q0 56 -10 110.5t-32.5 109.5t-68 89.5t-107.5 34.5q-41 0 -77.5 -10.5t-67.5 -31t-44 -31t-34 -30.5v-506z" />
<glyph unicode="&#xff;" horiz-adv-x="978" d="M20 1065h254l220 -709l217 709h252l-320 -1002q-39 -124 -74.5 -202t-87 -140.5t-121 -90t-165.5 -27.5q-57 0 -148 6v192q62 -12 98 -12q103 0 153 43t75 133zM158 1223v254h254v-254h-254zM569 1223v254h254v-254h-254z" />
<glyph unicode="&#x152;" horiz-adv-x="2076" d="M82 750q0 158 34.5 289t93.5 220.5t137.5 151.5t165.5 90.5t179 28.5q64 0 122 -14.5t95.5 -33t75.5 -49t55 -49t41 -47.5v164h852v-241h-594v-381h557v-234h-557v-403h627v-242h-885v172q-140 -201 -391 -201q-84 0 -166.5 25.5t-163 85t-142 147t-99 222t-37.5 299.5z M373 752q0 -58 6 -115t20 -120t40 -115.5t62 -96t91 -68t123 -24.5q64 0 117 22.5t87.5 58t61 85t41 97.5t23.5 103t11.5 93.5t2.5 75.5q0 75 -9 146t-33.5 144.5t-62 127t-99 88t-140.5 34.5q-65 0 -119 -23.5t-90 -65t-63 -93.5t-41.5 -114t-21.5 -120.5t-7 -119.5z" />
<glyph unicode="&#x153;" horiz-adv-x="1785" d="M72 532q0 136 37 243t102.5 174.5t151.5 102.5t188 35q238 0 367 -188q142 188 362 188q106 0 187.5 -36t128.5 -90t77.5 -126.5t40.5 -137t10 -130.5v-90h-677q2 -135 76 -221t218 -86q74 0 133.5 15.5t99.5 37.5t99 64v-217q-151 -93 -346 -93q-76 0 -141.5 15.5 t-105 34t-77 50t-51 47.5t-32.5 42q-17 -24 -30.5 -40.5t-48.5 -47.5t-71 -50.5t-94 -35t-123 -15.5q-215 0 -348 147.5t-133 407.5zM334 532q0 -45 5 -89t20 -95t38.5 -89t65 -63.5t94.5 -25.5q60 0 104.5 29t67 69t36 95t16.5 92.5t3 76.5q0 29 -2.5 59t-9.5 74.5 t-22.5 82t-39 72.5t-62.5 55t-89 20q-64 0 -110 -33t-70 -88.5t-34.5 -115.5t-10.5 -126zM1051 649h436q-25 250 -211 250q-92 0 -151.5 -66.5t-73.5 -183.5z" />
<glyph unicode="&#x178;" horiz-adv-x="1191" d="M20 1501h310l272 -543l266 543h303l-432 -831v-670h-282v670zM262 1634v262h262v-262h-262zM670 1634v262h262v-262h-262z" />
<glyph unicode="&#x2c6;" horiz-adv-x="681" d="M2 1200l266 352h146l266 -352h-172l-166 160l-168 -160h-172z" />
<glyph unicode="&#x2dc;" horiz-adv-x="681" d="M0 1327q47 89 96 140t115 51q31 0 64.5 -13.5t53 -26t58.5 -40.5q57 -39 88 -39q32 0 56 23t55 71l96 -68q-57 -102 -104.5 -146t-104.5 -44q-30 0 -62.5 11.5t-49 22t-44.5 29.5q-7 5 -18.5 13t-16.5 11t-13.5 8.5t-12.5 7.5t-10.5 6t-10.5 5t-9.5 2.5t-10 2t-10.5 0.5 q-29 0 -51.5 -20.5t-57.5 -71.5z" />
<glyph unicode="&#x2000;" horiz-adv-x="1012" />
<glyph unicode="&#x2001;" horiz-adv-x="2025" />
<glyph unicode="&#x2002;" horiz-adv-x="1012" />
<glyph unicode="&#x2003;" horiz-adv-x="2025" />
<glyph unicode="&#x2004;" horiz-adv-x="675" />
<glyph unicode="&#x2005;" horiz-adv-x="506" />
<glyph unicode="&#x2006;" horiz-adv-x="337" />
<glyph unicode="&#x2007;" horiz-adv-x="337" />
<glyph unicode="&#x2008;" horiz-adv-x="253" />
<glyph unicode="&#x2009;" horiz-adv-x="405" />
<glyph unicode="&#x200a;" horiz-adv-x="112" />
<glyph unicode="&#x2010;" horiz-adv-x="671" d="M72 426v213h528v-213h-528z" />
<glyph unicode="&#x2011;" horiz-adv-x="671" d="M72 426v213h528v-213h-528z" />
<glyph unicode="&#x2012;" horiz-adv-x="671" d="M72 426v213h528v-213h-528z" />
<glyph unicode="&#x2013;" horiz-adv-x="1024" d="M-12 432v201h1048v-201h-1048z" />
<glyph unicode="&#x2014;" horiz-adv-x="2048" d="M-12 432v201h2072v-201h-2072z" />
<glyph unicode="&#x2018;" horiz-adv-x="524" d="M115 899v313l168 318h127l-119 -303h119v-328h-295z" />
<glyph unicode="&#x2019;" horiz-adv-x="524" d="M113 870l118 304h-116v327h295v-313l-168 -318h-129z" />
<glyph unicode="&#x201a;" horiz-adv-x="524" d="M113 -303l118 303h-116v328h295v-314l-168 -317h-129z" />
<glyph unicode="&#x201c;" horiz-adv-x="1024" d="M115 899v313l168 318h127l-119 -303h119v-328h-295zM614 899v313l168 318h127l-118 -303h118v-328h-295z" />
<glyph unicode="&#x201d;" horiz-adv-x="1024" d="M113 870l118 304h-116v327h295v-313l-168 -318h-129zM612 870l119 304h-117v327h295v-313l-168 -318h-129z" />
<glyph unicode="&#x201e;" horiz-adv-x="1024" d="M113 -303l118 303h-116v328h295v-314l-168 -317h-129zM612 -303l119 303h-117v328h295v-314l-168 -317h-129z" />
<glyph unicode="&#x2022;" horiz-adv-x="704" d="M84 750q0 114 79 192t189 78t190.5 -78t80.5 -192q0 -111 -79.5 -190t-191.5 -79t-190 79t-78 190z" />
<glyph unicode="&#x2026;" horiz-adv-x="2048" d="M195 0v328h294v-328h-294zM877 0v328h294v-328h-294zM1559 0v328h294v-328h-294z" />
<glyph unicode="&#x202f;" horiz-adv-x="405" />
<glyph unicode="&#x2039;" horiz-adv-x="770" d="M39 532l393 476h299l-393 -476l393 -473h-299z" />
<glyph unicode="&#x203a;" horiz-adv-x="770" d="M39 59l393 473l-393 476h299l393 -476l-393 -473h-299z" />
<glyph unicode="&#x205f;" horiz-adv-x="506" />
<glyph unicode="&#x2122;" horiz-adv-x="1439" d="M47 1358v143h551v-143h-197v-514h-157v514h-197zM668 844v657h202l127 -424l125 424h203v-657h-151v358l-111 -358h-131l-113 358v-358h-151z" />
<glyph unicode="&#x25fc;" horiz-adv-x="1064" d="M0 0v1065h1065v-1065h-1065z" />
</font>
</defs>
</svg>
