<?xml version="1.0" standalone="no"?>
<!DOCTYPE svg PUBLIC "-//W3C//DTD SVG 1.1//EN" "http://www.w3.org/Graphics/SVG/1.1/DTD/svg11.dtd" >
<svg xmlns="http://www.w3.org/2000/svg">
<metadata></metadata>
<defs>
<font id="scandinavianheadline" horiz-adv-x="1253" >
<font-face units-per-em="2048" ascent="1638" descent="-410" />
<missing-glyph horiz-adv-x="440" />
<glyph unicode="&#xfb01;" horiz-adv-x="1378" d="M45 808v257h149v111q0 208 112 281t318 73q68 0 148 -10v-273q-49 6 -83 6q-60 0 -100 -23q-38 -23 -38 -97v-68h170v-257h-170v-808h-357v808h-149zM885 0v1065h356v-1065h-356zM885 1214v287h356v-287h-356z" />
<glyph unicode="&#xfb02;" horiz-adv-x="1378" d="M45 808v257h149v111q0 208 112 281t318 73q68 0 148 -10v-273q-49 6 -83 6q-60 0 -100 -23q-38 -23 -38 -97v-68h170v-257h-170v-808h-357v808h-149zM885 0v1501h356v-1501h-356z" />
<glyph horiz-adv-x="0" />
<glyph horiz-adv-x="682" />
<glyph horiz-adv-x="0" />
<glyph horiz-adv-x="0" />
<glyph unicode="&#xd;" horiz-adv-x="2048" />
<glyph unicode=" "  horiz-adv-x="440" />
<glyph unicode="&#x09;" horiz-adv-x="440" />
<glyph unicode="&#xa0;" horiz-adv-x="440" />
<glyph unicode="!" horiz-adv-x="696" d="M133 1501h430l-49 -979h-332zM149 0v387h398v-387h-398z" />
<glyph unicode="&#x22;" horiz-adv-x="946" d="M93 1259v242h287v-242l-67 -297h-153zM566 1259v242h287v-242l-67 -297h-154z" />
<glyph unicode="#" horiz-adv-x="1365" d="M68 382v246h193l52 245h-245v246h297l81 382h246l-81 -382h300l81 382h246l-81 -382h140v-246h-192l-52 -245h244v-246h-297l-81 -382h-246l81 382h-299l-82 -382h-246l82 382h-141zM507 628h300l52 245h-300z" />
<glyph unicode="$" d="M87 1082q0 160 108 279q109 120 341 148v112h200v-110q173 -16 341 -98v-350q-170 125 -341 147v-307q259 -85 356 -199q96 -112 96 -271q0 -178 -115 -296q-116 -119 -337 -144v-229h-200v225q-233 23 -424 112v364q211 -147 424 -170v330q-250 85 -350 191 q-99 106 -99 266zM408 1098q0 -39 20 -70q22 -30 116 -67v253q-136 -13 -136 -116zM727 295q140 30 140 131q0 89 -140 143v-274z" />
<glyph unicode="%" horiz-adv-x="1854" d="M34 1132q0 184 87 291q89 107 260 107q176 0 261 -109q86 -110 86 -293t-87 -291q-86 -107 -261 -107t-260 109q-86 110 -86 293zM292 1129q0 -208 89 -208t89 208q0 210 -89 210t-89 -210zM390 -29l889 1559h186l-889 -1559h-186zM1127 387q0 189 89 293.5t258 104.5 q166 0 256.5 -103t90.5 -298q0 -184 -87 -291t-261 -107q-175 0 -260 109q-86 110 -86 292zM1385 384q0 -208 89 -208t89 209q0 210 -89 210t-89 -211z" />
<glyph unicode="&#x26;" horiz-adv-x="1484" d="M77 412q0 119 60 212q59 92 245 218q-92 117 -130 192q-36 74 -36 150q0 149 128 247q129 99 329 99q189 0 313 -89q123 -89 123 -233q0 -114 -66 -206q-67 -92 -229 -222l185 -241q38 59 53 149h313q-57 -253 -176 -399l217 -289h-385l-59 78q-145 -107 -353 -107 q-236 0 -384 124t-148 317zM442 412q0 -154 208 -154q72 0 146 41l-232 301q-122 -86 -122 -188zM558 1188q0 -72 82 -178q128 93 128 194q0 98 -101 98q-50 0 -79.5 -31t-29.5 -83z" />
<glyph unicode="'" horiz-adv-x="473" d="M93 1259v242h287v-242l-67 -297h-153z" />
<glyph unicode="(" horiz-adv-x="862" d="M86 566q0 258 81 472t326 492h356q-195 -251 -280 -461q-86 -213 -86 -503q0 -289 86 -503q85 -211 280 -460h-356q-221 244 -314 464q-93 221 -93 499z" />
<glyph unicode=")" horiz-adv-x="862" d="M14 -397q193 246 279 460t86 503q0 290 -86 503t-279 461h355q245 -278 326 -492q82 -213 82 -472q0 -280 -94 -499q-93 -220 -314 -464h-355z" />
<glyph unicode="*" horiz-adv-x="1001" d="M45 913v287l311 -59l-202 243l249 144l95 -299l102 299l248 -146l-203 -243l311 61v-287l-311 58l203 -240l-250 -143l-100 295l-105 -289l-248 139l203 238z" />
<glyph unicode="+" horiz-adv-x="1365" d="M113 607v287h426v426h287v-426h426v-287h-426v-426h-287v426h-426z" />
<glyph unicode="," horiz-adv-x="590" d="M107 0v369h375v-355l-148 -358h-190l98 344h-135z" />
<glyph unicode="-" horiz-adv-x="672" d="M72 389v287h528v-287h-528z" />
<glyph unicode="." horiz-adv-x="590" d="M107 0v369h375v-369h-375z" />
<glyph unicode="/" horiz-adv-x="1124" d="M23 0l766 1501h312l-766 -1501h-312z" />
<glyph unicode="0" d="M70 754q0 359 139 567q140 209 418 209q285 0 421 -214t136 -569q0 -356 -138 -566q-136 -210 -419 -210q-174 0 -299 84q-124 86 -191 270q-67 183 -67 429zM445 748q0 -449 182 -449t182 451q0 452 -182 452t-182 -454z" />
<glyph unicode="1" d="M231 1003v295q181 63 377 203h268v-1208h203v-293h-797v293h236v821q-151 -76 -287 -111z" />
<glyph unicode="2" d="M96 0q31 211 81 346q51 135 130 232q78 95 229 216q141 112 180 160q41 50 41 118q0 66 -47 103t-124 37q-196 0 -455 -161v358q223 121 487 121q241 0 372 -121q132 -120 132 -316q0 -103 -50 -214q-49 -107 -256 -284q-141 -120 -186 -172q-47 -54 -69 -115h571v-308 h-1036z" />
<glyph unicode="3" d="M129 55v350q235 -122 437 -122q204 0 204 162q0 175 -258 182l-143 3v273q229 20 305 60q78 41 78 124q0 130 -173 130q-198 0 -440 -152v356q224 109 454 109q248 0 375 -113q126 -113 126 -292q0 -259 -248 -345q276 -80 276 -362q0 -222 -151 -334 q-151 -113 -387 -113q-226 0 -455 84z" />
<glyph unicode="4" d="M33 276v275l575 950h424v-948h174v-277h-174v-276h-338v276h-661zM377 553h317v518z" />
<glyph unicode="5" d="M141 51v350q214 -118 417 -118q115 0 182 56t67 155q0 188 -187 188q-107 0 -196 -74h-279l64 893h864v-308h-576l-22 -265q111 57 234 57q206 0 327 -130q123 -129 123 -353q0 -259 -155 -396q-154 -135 -429 -135q-209 0 -434 80z" />
<glyph unicode="6" d="M70 616q0 470 475 914h451q-197 -140 -349 -325q-153 -184 -200 -341q143 131 328 131q190 0 303 -137q114 -136 114 -350q0 -243 -148 -390q-147 -147 -396 -147q-274 0 -426 182t-152 463zM447 543q12 -121 69 -188t143 -67q79 0 135 56q56 58 56 146q0 84 -49 136 q-48 52 -121 52q-114 0 -233 -135z" />
<glyph unicode="7" d="M106 1193v308h1049v-299q-382 -602 -527 -1202h-373q139 586 520 1193h-669z" />
<glyph unicode="8" d="M66 403q0 257 266 382q-225 119 -225 338q0 180 143 293q142 114 377 114q247 0 383 -118q137 -117 137 -294q0 -227 -223 -333q264 -125 264 -370q0 -205 -158 -325q-158 -119 -405 -119q-260 0 -410 123q-149 123 -149 309zM431 432q0 -66 53 -110q53 -43 143 -43 q87 0 142 43t55 110q0 118 -197 207q-196 -91 -196 -207zM459 1096q0 -96 168 -183q168 85 168 185q0 56 -44 97q-43 42 -125 42q-74 0 -120.5 -39.5t-46.5 -101.5z" />
<glyph unicode="9" d="M61 1014q0 233 151 374q151 142 400 142q275 0 423 -178q149 -179 149 -430q0 -191 -100 -395q-99 -205 -386 -527h-460q280 268 380 390q97 116 197 274q-135 -129 -323 -129q-182 0 -307 134q-124 134 -124 345zM403 1028q0 -72 49 -124t126 -52q148 0 243 117 q-1 114 -66 179q-63 64 -157 64q-86 0 -141 -54q-54 -52 -54 -130z" />
<glyph unicode=":" horiz-adv-x="590" d="M107 0v369h375v-369h-375zM107 697v368h375v-368h-375z" />
<glyph unicode=";" horiz-adv-x="590" d="M107 0v369h375v-355l-148 -358h-190l98 344h-135zM107 697v368h375v-368h-375z" />
<glyph unicode="&#x3c;" horiz-adv-x="1365" d="M113 621v258l1139 470v-308l-744 -291l744 -290v-308z" />
<glyph unicode="=" horiz-adv-x="1365" d="M113 362v287h1139v-287h-1139zM113 852v287h1139v-287h-1139z" />
<glyph unicode="&#x3e;" horiz-adv-x="1365" d="M113 152v308l744 290l-744 291v308l1139 -470v-258z" />
<glyph unicode="?" horiz-adv-x="1053" d="M41 1032v379q221 119 465 119q235 0 359 -103q126 -103 126 -276q0 -104 -40 -171q-39 -67 -139 -160q-115 -107 -138 -145q-24 -37 -24 -112v-41h-349v76q0 121 34 188q34 69 118 148q70 66 97 101q24 31 24 66q0 84 -124 84q-197 0 -409 -153zM279 0v387h397v-387h-397 z" />
<glyph unicode="@" horiz-adv-x="1894" d="M76 545q0 421 262 682q262 262 662 262q365 0 592 -230q226 -229 226 -614q0 -266 -119 -456q-119 -189 -327 -189q-203 0 -278 166q-82 -98 -138 -132q-55 -34 -133 -34q-130 0 -218 109q-87 109 -87 308q0 231 115 394q116 164 288 164q94 0 163 -72l4 62h305l-55 -582 q-5 -52 -5 -75q0 -83 51 -83q79 0 134 130q55 129 55 294q0 271 -153 435q-153 165 -427 165q-275 0 -466 -186q-189 -186 -189 -524q0 -340 179.5 -519.5t525.5 -179.5q291 0 551 88v-250q-255 -75 -534 -75q-315 0 -536 113t-335 336q-113 224 -113 493zM838 402 q0 -132 86 -132q66 0 106 76l27 293q-35 59 -80 59q-59 0 -100 -81q-39 -79 -39 -215z" />
<glyph unicode="A" horiz-adv-x="1456" d="M21 0l504 1501h407l504 -1501h-395l-78 248h-473l-80 -248h-389zM582 541h289l-145 460z" />
<glyph unicode="B" horiz-adv-x="1409" d="M164 0v1501h582q288 0 419 -99q130 -97 130 -288q0 -238 -222 -342q254 -92 254 -349q0 -204 -152 -314q-151 -109 -421 -109h-590zM561 308h166q100 0 149.5 42.5t49.5 114.5q0 156 -202 156h-163v-313zM561 915h164q90 0 134 44q44 46 44 100q0 134 -178 134h-164v-278 z" />
<glyph unicode="C" horiz-adv-x="1304" d="M76 737q0 357 195 574q197 219 522 219q227 0 426 -96v-379q-191 139 -367 139q-173 0 -272 -122t-99 -327q0 -199 98 -320q99 -119 279 -119q177 0 379 140v-378q-201 -97 -433 -97q-333 0 -531 205q-197 206 -197 561z" />
<glyph unicode="D" horiz-adv-x="1497" d="M164 0v1501h541q363 0 539 -200q177 -199 177 -554t-175 -551t-549 -196h-533zM561 335h125q163 0 246 113q84 114 84 312q0 195 -82 300t-235 105h-138v-830z" />
<glyph unicode="E" horiz-adv-x="1245" d="M164 0v1501h948v-315h-551v-271h506v-308h-506v-292h574v-315h-971z" />
<glyph unicode="F" horiz-adv-x="1153" d="M164 0v1501h928v-315h-531v-301h467v-307h-467v-578h-397z" />
<glyph unicode="G" horiz-adv-x="1415" d="M76 737q0 358 193 575q194 218 540 218q247 0 447 -96v-381q-184 141 -387 141q-173 0 -281 -118q-107 -119 -107 -328q0 -212 96.5 -327t274.5 -115q43 0 76 9v207h-186v293h561v-727q-223 -117 -521 -117q-309 0 -508 205q-198 206 -198 561z" />
<glyph unicode="H" horiz-adv-x="1581" d="M164 0v1501h397v-548h459v548h397v-1501h-397v604h-459v-604h-397z" />
<glyph unicode="I" horiz-adv-x="725" d="M164 0v1501h397v-1501h-397z" />
<glyph unicode="J" horiz-adv-x="1010" d="M41 55v367q155 -101 290 -101q71 0 100 50q30 49 30 233v897h397v-1046q0 -244 -96 -364q-94 -120 -334 -120q-212 0 -387 84z" />
<glyph unicode="K" horiz-adv-x="1401" d="M164 0v1501h397v-485l365 485h438l-453 -577l480 -924h-428l-305 604l-97 -121v-483h-397z" />
<glyph unicode="L" horiz-adv-x="1126" d="M164 0v1501h397v-1166h529v-335h-926z" />
<glyph unicode="M" horiz-adv-x="1798" d="M164 0v1501h494l241 -788l242 788h493v-1501h-356v882l-268 -882h-219l-271 882v-882h-356z" />
<glyph unicode="N" horiz-adv-x="1546" d="M164 0v1501h410l430 -776v776h379v-1501h-375l-465 836v-836h-379z" />
<glyph unicode="O" horiz-adv-x="1557" d="M76 749q0 357 189 569t513 212q327 0 515 -215t188 -568t-191 -565q-190 -211 -512 -211q-316 0 -510 206q-192 207 -192 572zM481 748q0 -204 76 -323q77 -119 221 -119t221 119t77 322q0 208 -76 327q-76 120 -222 120t-222 -121q-75 -120 -75 -325z" />
<glyph unicode="P" horiz-adv-x="1397" d="M164 0v1501h571q289 0 442.5 -122.5t153.5 -351.5q0 -244 -152 -372q-151 -127 -423 -127h-195v-528h-397zM561 836h127q122 0 180 51q58 52 58 127q0 66 -48 119q-47 53 -162 53h-155v-350z" />
<glyph unicode="Q" horiz-adv-x="1557" d="M76 749q0 357 189 569t513 212q327 0 515 -215t188 -568q0 -279 -126 -481q-124 -202 -373 -270q63 -86 245 -86q82 0 172 16v-266q-95 -20 -191 -20q-464 0 -619 353q-250 60 -382 263q-131 205 -131 493zM481 748q0 -204 76 -323q77 -119 221 -119t221 119t77 322 q0 208 -76 327q-76 120 -222 120t-222 -121q-75 -120 -75 -325z" />
<glyph unicode="R" horiz-adv-x="1429" d="M164 0v1501h545q296 0 451 -117.5t155 -347.5q0 -290 -266 -415l350 -621h-430l-295 555h-113v-555h-397zM561 848h129q108 0 168 47t60 131q0 76 -55.5 121.5t-157.5 45.5h-144v-345z" />
<glyph unicode="S" horiz-adv-x="1321" d="M92 1085q0 204 156 324q157 121 428 121q259 0 481 -103v-370q-92 60 -229 102q-136 43 -254 43q-195 0 -195 -102q0 -55 46 -80q50 -27 256 -100q274 -98 368 -207q96 -109 96 -273q0 -230 -159 -350q-160 -119 -435 -119q-289 0 -555 115v385q271 -172 559 -172 q203 0 203 113q0 49 -41 84q-42 36 -194 88q-326 113 -428 218q-103 106 -103 283z" />
<glyph unicode="T" horiz-adv-x="1303" d="M53 1165v336h1196v-336h-399v-1165h-398v1165h-399z" />
<glyph unicode="U" horiz-adv-x="1544" d="M152 580v921h397v-837q0 -188 52 -273t172 -85q119 0 171 85t52 273v837h397v-921q0 -314 -151.5 -461.5t-468.5 -147.5q-319 0 -471 146q-150 147 -150 463z" />
<glyph unicode="V" horiz-adv-x="1352" d="M21 1501h395l264 -934l265 934h387l-453 -1501h-405z" />
<glyph unicode="W" horiz-adv-x="1919" d="M37 1501h375l188 -882l193 882h338l188 -891l193 891h370l-348 -1501h-399l-176 817l-179 -817h-401z" />
<glyph unicode="X" horiz-adv-x="1395" d="M21 0l465 780l-426 721h426l213 -385l215 385h422l-426 -715l465 -786h-426l-254 449l-250 -449h-424z" />
<glyph unicode="Y" horiz-adv-x="1311" d="M16 1501h426l219 -528l215 528h418l-440 -913v-588h-398v592z" />
<glyph unicode="Z" horiz-adv-x="1223" d="M72 0v256l619 909h-566v336h1026v-309l-579 -857h579v-335h-1079z" />
<glyph unicode="[" horiz-adv-x="846" d="M164 -397v1898h631v-299h-256v-1300h256v-299h-631z" />
<glyph unicode="\" horiz-adv-x="1124" d="M23 1501h312l766 -1501h-312z" />
<glyph unicode="]" horiz-adv-x="846" d="M51 -98h256v1300h-256v299h631v-1898h-631v299z" />
<glyph unicode="^" horiz-adv-x="1194" d="M111 785l380 716h213l380 -716h-276l-210 414l-211 -414h-276z" />
<glyph unicode="_" horiz-adv-x="1024" d="M-12 -154h1048v-102h-1048v102z" />
<glyph unicode="`" horiz-adv-x="682" d="M-12 1594h357l207 -394h-240z" />
<glyph unicode="a" horiz-adv-x="1163" d="M66 285q0 121 66.5 196.5t199.5 116.5l348 109v36q0 91 -121 91q-199 0 -432 -117v284q231 86 473 86q222 0 329 -86t107 -282v-719h-293l-24 92q-139 -115 -309 -115q-144 0 -245 81q-99 82 -99 227zM408 309q0 -52 31 -80t73 -28q76 0 168 75v242q-24 -21 -52 -31 l-110 -43q-110 -42 -110 -135z" />
<glyph unicode="b" horiz-adv-x="1264" d="M137 0v1501h356v-526q124 113 285 113q192 0 306 -156q114 -154 114 -397t-114 -400q-113 -158 -314 -158q-174 0 -311 132l-29 -109h-293zM493 363q79 -90 174 -90q76 0 121 69t45 192q0 122 -45 190.5t-124 68.5q-91 0 -171 -80v-350z" />
<glyph unicode="c" horiz-adv-x="1004" d="M66 533q0 239 146 397q147 158 399 158q161 0 323 -68v-311q-146 92 -263 92q-111 0 -175 -72q-65 -71 -65 -196q0 -118 59 -194q58 -75 187 -75q130 0 278 94v-311q-156 -70 -344 -70q-260 0 -402 154q-143 155 -143 402z" />
<glyph unicode="d" horiz-adv-x="1264" d="M66 535q0 247 115 399q115 154 311 154q154 0 279 -113v526h356v-1501h-293l-29 107q-139 -130 -307 -130q-190 0 -311 147q-121 148 -121 411zM431 528q0 -120 46 -187.5t117 -67.5q99 0 177 92v348q-83 80 -167 80q-173 0 -173 -265z" />
<glyph unicode="e" horiz-adv-x="1157" d="M66 530q0 248 140 403q141 154 390 154q168 0 290 -77q121 -76 163 -195q43 -117 43 -231v-142h-664q26 -194 289 -194q159 0 317 76v-287q-160 -60 -372 -60q-300 0 -448 147t-148 406zM428 637h336q-9 205 -164 205q-156 0 -172 -205z" />
<glyph unicode="f" horiz-adv-x="747" d="M45 808v257h149v111q0 208 112 281t318 73q68 0 148 -10v-273q-49 6 -83 6q-60 0 -100 -23q-38 -23 -38 -97v-68h170v-257h-170v-808h-357v808h-149z" />
<glyph unicode="g" horiz-adv-x="1254" d="M66 561q0 223 111 374q112 153 313 153q182 0 315 -132l29 109h293v-963q0 -261 -131 -380t-406 -119q-230 0 -446 73v293q220 -104 420 -104q105 0 156 53t51 174v60q-122 -113 -285 -113q-180 0 -300 140q-120 141 -120 382zM431 561q0 -105 45.5 -165.5t126.5 -60.5 q92 0 168 79v288q-79 91 -173 91q-74 0 -120.5 -60.5t-46.5 -171.5z" />
<glyph unicode="h" horiz-adv-x="1270" d="M137 0v1501h356v-536q174 123 347 123q303 0 303 -347v-741h-357v649q0 127 -92 127q-85 0 -201 -74v-702h-356z" />
<glyph unicode="i" horiz-adv-x="631" d="M137 0v1065h356v-1065h-356zM137 1214v287h356v-287h-356z" />
<glyph unicode="j" horiz-adv-x="631" d="M-67 -115q49 -6 86 -6q119 0 119 121v1065h356v-1110q0 -202 -108 -277q-106 -75 -319 -75q-68 0 -134 10v272zM138 1214v287h356v-287h-356z" />
<glyph unicode="k" horiz-adv-x="1212" d="M137 0v1501h356v-778l275 342h385l-320 -383l355 -682h-375l-205 412l-115 -138v-274h-356z" />
<glyph unicode="l" horiz-adv-x="631" d="M137 0v1501h356v-1501h-356z" />
<glyph unicode="m" horiz-adv-x="1849" d="M137 0v1065h356v-115q181 138 332 138q189 0 252 -160q205 160 370 160q275 0 275 -336v-752h-356v661q0 115 -70 115q-82 0 -188 -89v-687h-357v649q0 127 -69 127q-76 0 -189 -89v-687h-356z" />
<glyph unicode="n" horiz-adv-x="1270" d="M137 0v1065h356v-115q186 138 344 138q306 0 306 -336v-752h-357v649q0 127 -86 127q-82 0 -207 -88v-688h-356z" />
<glyph unicode="o" horiz-adv-x="1211" d="M66 533q0 257 142 405q142 150 398 150t397 -151q142 -151 142 -404q0 -250 -141 -403q-140 -153 -396 -153t-399 150q-143 152 -143 406zM431 533q0 -126 45 -197.5t130 -71.5q83 0 129 73t46 198q0 119 -45 192q-44 74 -130 74q-84 0 -129.5 -71.5t-45.5 -196.5z" />
<glyph unicode="p" horiz-adv-x="1264" d="M137 -397v1462h338v-92q133 115 294 115q207 0 318 -162t111 -395q0 -251 -117 -403q-117 -151 -303 -151q-160 0 -285 113v-487h-356zM493 352q78 -79 167 -79q83 0 128 69t45 195q0 119 -45.5 187.5t-123.5 68.5q-86 0 -171 -93v-348z" />
<glyph unicode="q" horiz-adv-x="1264" d="M66 533q0 240 113 398q112 157 320 157q169 0 306 -132l29 109h293v-1462h-356v487q-119 -113 -286 -113q-188 0 -304 152q-115 152 -115 404zM431 531q0 -125 46 -191.5t124 -66.5q94 0 170 79v350q-97 91 -174 91q-74 0 -120 -69.5t-46 -192.5z" />
<glyph unicode="r" horiz-adv-x="903" d="M137 0v1065h338v-176q148 199 327 199q35 0 70 -7v-344q-39 6 -74 6q-133 0 -219 -85q-86 -84 -86 -216v-442h-356z" />
<glyph unicode="s" horiz-adv-x="1004" d="M66 760q0 154 122 241t341 87q189 0 352 -60v-276q-170 85 -346 85q-117 0 -117 -70q0 -30 21 -48q22 -17 128 -53q136 -47 216 -88q160 -79 160 -255q0 -163 -123 -255q-122 -91 -332 -91q-204 0 -414 72v285q201 -100 404 -100q112 0 112 66q0 34 -27 53 q-28 20 -122 56q-151 57 -225 96q-150 83 -150 255z" />
<glyph unicode="t" horiz-adv-x="768" d="M33 808v257h156v367h356v-367h182v-257h-182v-403q0 -96 25 -124t98 -28q38 0 67 6v-271q-86 -11 -157 -11q-211 0 -300 83q-89 84 -89 274v474h-156z" />
<glyph unicode="u" horiz-adv-x="1270" d="M127 314v751h356v-649q0 -126 86 -126q83 0 207 87v688h357v-1065h-357v115q-186 -138 -343 -138q-306 0 -306 337z" />
<glyph unicode="v" horiz-adv-x="1069" d="M16 1065h355l168 -655l168 655h346l-310 -1065h-417z" />
<glyph unicode="w" horiz-adv-x="1548" d="M16 1065h336l135 -608l156 608h268l150 -612l141 612h329l-280 -1065h-350l-127 508l-127 -508h-350z" />
<glyph unicode="x" horiz-adv-x="1079" d="M12 0l338 536l-332 529h391l133 -258l135 258h390l-336 -529l336 -536h-390l-139 268l-139 -268h-387z" />
<glyph unicode="y" horiz-adv-x="1085" d="M24 1065h352l174 -592l174 592h345l-308 -934q-106 -325 -205 -427q-98 -101 -300 -101q-61 0 -181 8v277q82 -9 152 -9q61 0 95 20q33 19 62 78z" />
<glyph unicode="z" horiz-adv-x="1057" d="M70 0v252l458 531h-415v282h866v-254l-451 -529h451v-282h-909z" />
<glyph unicode="{" horiz-adv-x="797" d="M18 397v338q65 0 103 12q92 28 92 220q0 226 20 335q21 108 112 168t298 60h137v-299h-32q-62 0 -99 -17q-35 -17 -50 -62q-14 -43 -19 -162q-5 -149 -13 -215q-9 -73 -41.5 -123.5t-99.5 -84.5q69 -34 101 -87q33 -55 40 -122q8 -66 13 -215q5 -119 19 -162 q15 -44 49.5 -61.5t99.5 -17.5h32v-299h-137q-207 0 -298 61q-91 60 -112 168q-20 109 -20 334q0 108 -27 157q-26 51 -65 62q-37 12 -103 12z" />
<glyph unicode="|" horiz-adv-x="1301" d="M507 -397v1898h287v-1898h-287z" />
<glyph unicode="}" horiz-adv-x="797" d="M16 -98h33q62 0 98 17q36 16 51 62q15 45 18 162q5 149 13 215q9 73 42 124t100 85q-70 34 -102 86q-31 52 -40 122q-8 66 -13 215q-3 118 -19 162q-15 44 -49 61.5t-99 17.5h-33v299h138q206 0 297 -60q93 -61 112 -168q21 -106 21 -335q0 -108 26 -158t65 -62t103 -12 v-338q-64 0 -103 -12q-91 -26 -91 -219q0 -228 -21 -334q-19 -107 -112 -168q-91 -61 -297 -61h-138v299z" />
<glyph unicode="~" horiz-adv-x="1365" d="M113 529v287q161 156 340 156q58 0 112 -17t207 -87q111 -52 180 -52q134 0 300 156v-287q-164 -156 -330 -156q-96 0 -285 90q-138 66 -211 66q-155 0 -313 -156z" />
<glyph unicode="&#xa1;" horiz-adv-x="696" d="M133 -397l49 962h332l49 -962h-430zM149 701v387h398v-387h-398z" />
<glyph unicode="&#xa2;" horiz-adv-x="958" d="M66 491q0 221 138 366q138 146 375 146q39 0 89 -5l151 503h192l-163 -545q6 -2 40 -16v-283q-76 43 -113 57l-141 -474q65 2 117 17t147 70v-284q-149 -64 -343 -64l-117 -391h-192l126 421q-145 49 -226 178q-80 131 -80 304zM404 491q0 -113 57 -184l129 431 q-186 -38 -186 -247z" />
<glyph unicode="&#xa3;" d="M95 624v241h145q-63 155 -63 243q0 190 140 306q142 116 386 116q186 0 357 -62v-350q-177 76 -319 76q-77 0 -122 -37t-45 -93t72 -199h276v-241h-213q5 -38 5 -51q0 -133 -113 -225q78 0 210 -26q113 -23 152 -23q97 0 209 66v-328q-102 -66 -211 -66q-49 0 -213 33 q-166 33 -243 33q-141 0 -359 -66v314q117 82 145 142q29 61 29 130q0 29 -6 67h-219z" />
<glyph unicode="&#xa4;" d="M-6 485l43 199h65l-2 66q0 35 2 63h-108l43 199h98q71 254 244 386t430 132q166 0 367 -70v-346q-175 94 -332 94q-225 0 -309 -196h575l-41 -199h-584q-2 -34 -2 -68q0 -31 2 -61h562l-41 -199h-471q83 -192 321 -192q159 0 338 94v-346q-192 -70 -383 -70 q-264 0 -440 133q-177 134 -240 381h-137z" />
<glyph unicode="&#xa5;" horiz-adv-x="1311" d="M16 1501h426l219 -528l215 528h418l-255 -528h197v-229h-307l-75 -156v-27h382v-229h-382v-332h-398v332h-382v229h382v31l-73 152h-309v229h198z" />
<glyph unicode="&#xa6;" horiz-adv-x="1301" d="M507 322h287v-719h-287v719zM507 782v719h287v-719h-287z" />
<glyph unicode="&#xa7;" horiz-adv-x="1137" d="M63 582q0 195 203 342q-137 119 -137 272q0 104 60 179q59 74 171 115q110 40 242 40q224 0 422 -96v-293q-196 137 -367 137q-64 0 -99.5 -25.5t-35.5 -70.5q0 -36 30 -74q28 -35 161 -119q131 -80 200 -137q158 -128 158 -301q0 -190 -203 -342q138 -121 138 -270 q0 -161 -129 -248q-128 -88 -340 -88q-219 0 -426 98v291q197 -135 368 -135q60 0 96.5 24.5t36.5 71.5q0 84 -161 173q-160 90 -275 197q-113 108 -113 259zM408 614q0 -48 34 -92q35 -46 207 -155q78 79 78 155q0 55 -47 102q-50 50 -193 142q-79 -76 -79 -152z" />
<glyph unicode="&#xa8;" horiz-adv-x="682" d="M-84 1214v287h356v-287h-356zM409 1214v287h357v-287h-357z" />
<glyph unicode="&#xa9;" horiz-adv-x="1720" d="M76 745q0 325 231 554q231 231 553 231q324 0 554 -231q230 -230 230 -554q0 -321 -230 -553q-230 -230 -554 -230q-326 0 -555 229t-229 554zM302 746q0 -235 164 -397q165 -162 394 -162q230 0 394 164t164 394t-164 394q-164 165 -394 165q-228 0 -394 -164 q-164 -164 -164 -394zM478 747q0 184 119 300q121 116 309 116q132 0 244 -87v-215q-73 61 -122 81q-46 21 -108 21q-95 0 -149.5 -57.5t-54.5 -154.5q0 -98 50 -160t152 -62q71 0 123 23q49 23 120 77v-214q-111 -87 -255 -87q-198 0 -313 115t-115 304z" />
<glyph unicode="&#xaa;" horiz-adv-x="780" d="M43 1035q0 148 185 201l214 62q0 29 -13 39.5t-54 10.5q-126 0 -292 -77v203q162 56 319 56q152 0 224 -56t72 -180v-445h-211l-14 48q-89 -62 -194 -62q-101 0 -169 53q-67 52 -67 147zM293 1049q0 -49 53 -49q40 0 96 39v107l-88 -32q-61 -21 -61 -65z" />
<glyph unicode="&#xab;" horiz-adv-x="1475" d="M35 533l393 474h390l-393 -474l393 -474h-390zM657 533l393 474h390l-393 -474l393 -474h-390z" />
<glyph unicode="&#xac;" horiz-adv-x="1365" d="M113 852v287h1139v-777h-287v490h-852z" />
<glyph unicode="&#xad;" horiz-adv-x="672" d="M72 389v287h528v-287h-528z" />
<glyph unicode="&#xae;" horiz-adv-x="998" d="M51 1081q0 185 132 317q134 132 316 132q184 0 316 -132q133 -132 133 -317t-132 -317q-131 -131 -316 -131q-189 0 -319 132q-130 131 -130 316zM184 1081q0 -133 93 -224q95 -92 222 -92q130 0 223 93t93 223t-93 223q-92 93 -223 93q-129 0 -222 -93t-93 -223z M336 863v461h161q188 0 188 -146q0 -86 -87 -123l113 -192h-134l-103 173h-6v-173h-132zM468 1131q87 0 87 49t-87 49v-98z" />
<glyph unicode="&#xaf;" horiz-adv-x="682" d="M2 1301v230h679v-230h-679z" />
<glyph unicode="&#xb0;" horiz-adv-x="925" d="M117 1184q0 142 102 244t244 102q143 0 243 -102q101 -101 101 -244t-101 -244q-100 -100 -243 -100q-142 0 -245 101q-101 101 -101 243zM297 1185q0 -67 48 -116q49 -49 116 -49q68 0 117 49t49 117q0 67 -49 115q-49 49 -117 49q-67 0 -116 -49q-48 -48 -48 -116z" />
<glyph unicode="&#xb1;" horiz-adv-x="1365" d="M113 -14v287h1139v-287h-1139zM113 795v287h426v426h287v-426h426v-287h-426v-426h-287v426h-426z" />
<glyph unicode="&#xb2;" horiz-adv-x="762" d="M47 744q29 165 82 247q57 84 190 173q77 51 100 74q21 22 21 51q0 56 -83 56q-115 0 -287 -93v212q144 66 306 66q150 0 232 -64q84 -63 84 -166q0 -68 -40 -126t-192 -165q-71 -50 -92 -84h330v-181h-651z" />
<glyph unicode="&#xb3;" horiz-adv-x="762" d="M69 776v207q158 -70 272 -70q106 0 106 66q0 73 -134 76l-103 2v161q158 14 192 30q34 18 34 49q0 50 -84 50q-110 0 -277 -87v210q146 60 287 60q154 0 233 -60q80 -60 80 -154q0 -114 -117 -170q134 -56 134 -183q0 -111 -93 -172q-91 -61 -250 -61q-133 0 -280 46z " />
<glyph unicode="&#xb4;" horiz-adv-x="682" d="M130 1200l207 394h357l-323 -394h-241z" />
<glyph unicode="&#xb5;" horiz-adv-x="1270" d="M127 -397v1462h356v-613q0 -99 42 -144q42 -44 101 -44q62 0 106 50t44 135v616h357v-1065h-316v86q-91 -109 -195 -109q-80 0 -139 48v-422h-356z" />
<glyph unicode="&#xb6;" horiz-adv-x="1227" d="M18 1047q0 193 126 323q128 131 374 131h692v-233h-98v-1665h-278v1665h-142v-1665h-278v1026q-198 0 -297 118q-99 119 -99 300z" />
<glyph unicode="&#xb7;" horiz-adv-x="590" d="M107 566v369h375v-369h-375z" />
<glyph unicode="&#xb8;" horiz-adv-x="682" d="M1 -367l74 148q96 -29 176 -29q95 0 95 51q0 68 -175 72l94 174h160l-45 -80q174 -41 174 -186q0 -191 -294 -191q-130 0 -259 41z" />
<glyph unicode="&#xb9;" horiz-adv-x="762" d="M129 1237v174q115 32 235 104h182v-597h120v-174h-507v174h139v369q-80 -32 -169 -50z" />
<glyph unicode="&#xba;" horiz-adv-x="811" d="M43 1183q0 157 95 252q97 95 268 95q177 0 270 -98t93 -250q0 -154 -95 -251q-94 -96 -266 -96t-269 95q-96 94 -96 253zM304 1183q0 -148 102 -148t102 149q0 145 -102 145t-102 -146z" />
<glyph unicode="&#xbb;" horiz-adv-x="1475" d="M35 59l393 474l-393 474h390l393 -474l-393 -474h-390zM657 59l393 474l-393 474h390l393 -474l-393 -474h-390z" />
<glyph unicode="&#xbc;" horiz-adv-x="1855" d="M129 1237v174q115 32 235 104h182v-597h120v-174h-507v174h139v369q-80 -32 -169 -50zM389 -29l889 1559h186l-889 -1559h-186zM1106 126v164l346 482h279v-482h104v-164h-104v-125h-228v125h-397zM1315 290h188v258z" />
<glyph unicode="&#xbd;" horiz-adv-x="1855" d="M129 1237v174q115 32 235 104h182v-597h120v-174h-507v174h139v369q-80 -32 -169 -50zM326 -29l889 1559h186l-889 -1559h-186zM1139 1q29 165 82 247q57 84 190 173q77 51 100 74q21 23 21 51q0 56 -83 56q-115 0 -287 -93v212q144 66 306 66q150 0 232 -64 q84 -63 84 -166q0 -68 -40 -126q-40 -59 -192 -165q-71 -50 -92 -84h330v-181h-651z" />
<glyph unicode="&#xbe;" horiz-adv-x="1854" d="M69 776v207q158 -70 272 -70q106 0 106 66q0 73 -134 76l-103 2v161q158 14 192 30q34 18 34 49q0 50 -84 50q-110 0 -277 -87v210q146 60 287 60q154 0 233 -60q80 -60 80 -154q0 -114 -117 -170q134 -56 134 -183q0 -111 -93 -172q-91 -61 -250 -61q-133 0 -280 46z M390 -29l889 1559h186l-889 -1559h-186zM1106 126v164l346 482h279v-482h104v-164h-104v-125h-228v125h-397zM1315 290h188v258z" />
<glyph unicode="&#xbf;" horiz-adv-x="1053" d="M61 -18q0 72 23 132q24 60 60 102t145 142q73 67 92 105q20 38 22 102h348v-30q0 -122 -34 -189q-35 -68 -118 -147q-70 -66 -97 -101q-23 -32 -23 -66q0 -84 123 -84q198 0 409 153v-379q-220 -119 -465 -119q-228 0 -357 102q-128 101 -128 277zM376 701v387h398v-387 h-398z" />
<glyph unicode="&#xc0;" horiz-adv-x="1456" d="M21 0l504 1501h407l504 -1501h-395l-78 248h-473l-80 -248h-389zM339 2029h357l207 -394h-240zM582 541h289l-145 460z" />
<glyph unicode="&#xc1;" horiz-adv-x="1456" d="M21 0l504 1501h407l504 -1501h-395l-78 248h-473l-80 -248h-389zM554 1635l207 394h357l-323 -394h-241zM582 541h289l-145 460z" />
<glyph unicode="&#xc2;" horiz-adv-x="1456" d="M21 0l504 1501h407l504 -1501h-395l-78 248h-473l-80 -248h-389zM353 1635l281 379h187l282 -379h-233l-143 138l-142 -138h-232zM582 541h289l-145 460z" />
<glyph unicode="&#xc3;" horiz-adv-x="1456" d="M21 0l504 1501h407l504 -1501h-395l-78 248h-473l-80 -248h-389zM381 1785q100 199 215 199q66 0 152 -53q80 -50 113 -50q47 0 94 72l121 -87q-47 -87 -97 -142q-51 -55 -123 -55q-58 0 -174 68q-61 35 -87 35q-43 0 -90 -71zM582 541h289l-145 460z" />
<glyph unicode="&#xc4;" horiz-adv-x="1456" d="M21 0l504 1501h407l504 -1501h-395l-78 248h-473l-80 -248h-389zM303 1591v335h356v-335h-356zM582 541h289l-145 460zM796 1591v335h357v-335h-357z" />
<glyph unicode="&#xc5;" horiz-adv-x="1456" d="M21 0l505 1504q-56 70 -56 162q0 107 76 183t183 76t183 -76t76 -183q0 -90 -57 -162l505 -1504h-395l-78 248h-473l-80 -248h-389zM582 541h289l-145 460zM635 1666q0 -39 27.5 -66.5t66.5 -27.5t66.5 27.5t27.5 66.5t-27.5 66.5t-66.5 27.5t-66.5 -27.5t-27.5 -66.5z " />
<glyph unicode="&#xc6;" horiz-adv-x="2052" d="M21 0l666 1501h1232v-315h-529v-271h484v-308h-484v-292h551v-315h-949v298h-450l-132 -298h-389zM672 591h320v595h-55z" />
<glyph unicode="&#xc7;" horiz-adv-x="1304" d="M76 737q0 357 195 574q197 219 522 219q227 0 426 -96v-379q-191 139 -367 139q-173 0 -272 -122t-99 -327q0 -199 98 -320q99 -119 279 -119q177 0 379 140v-378q-201 -97 -419 -97q173 -44 173 -188q0 -191 -295 -191q-129 0 -258 41l73 148q96 -29 177 -29q95 0 95 51 q0 68 -175 72l57 107q-285 44 -437 248q-152 205 -152 507z" />
<glyph unicode="&#xc8;" horiz-adv-x="1245" d="M164 0v1501h948v-315h-551v-271h506v-308h-506v-292h574v-315h-971zM259 2029h357l207 -394h-240z" />
<glyph unicode="&#xc9;" horiz-adv-x="1245" d="M164 0v1501h948v-315h-551v-271h506v-308h-506v-292h574v-315h-971zM438 1635l207 394h357l-323 -394h-241z" />
<glyph unicode="&#xca;" horiz-adv-x="1245" d="M164 0v1501h948v-315h-551v-271h506v-308h-506v-292h574v-315h-971zM249 1635l281 379h187l282 -379h-233l-143 138l-142 -138h-232z" />
<glyph unicode="&#xcb;" horiz-adv-x="1245" d="M164 0v1501h948v-315h-551v-271h506v-308h-506v-292h574v-315h-971zM194 1640v335h356v-335h-356zM687 1640v335h357v-335h-357z" />
<glyph unicode="&#xcc;" horiz-adv-x="725" d="M-14 2029h357l207 -394h-240zM164 0v1501h397v-1501h-397z" />
<glyph unicode="&#xcd;" horiz-adv-x="725" d="M164 0v1501h397v-1501h-397zM176 1635l207 394h357l-323 -394h-241z" />
<glyph unicode="&#xce;" horiz-adv-x="725" d="M-12 1635l281 379h187l282 -379h-233l-143 138l-142 -138h-232zM164 0v1501h397v-1501h-397z" />
<glyph unicode="&#xcf;" horiz-adv-x="725" d="M-62 1640v335h356v-335h-356zM164 0v1501h397v-1501h-397zM431 1640v335h357v-335h-357z" />
<glyph unicode="&#xd0;" horiz-adv-x="1497" d="M5 630v241h159v630h542q362 0 539 -200q177 -199 177 -554q0 -354 -176 -551q-175 -196 -549 -196h-533v630h-159zM561 335h125q163 0 246 113q84 114 84 312q0 195 -82 300t-235 105h-138v-294h233v-241h-233v-295z" />
<glyph unicode="&#xd1;" horiz-adv-x="1546" d="M164 0v1501h410l430 -776v776h379v-1501h-375l-465 836v-836h-379zM426 1785q100 199 215 199q66 0 152 -53q80 -50 113 -50q48 0 94 72l121 -87q-47 -87 -97 -142q-51 -55 -123 -55q-58 0 -174 68q-61 35 -87 35q-43 0 -90 -71z" />
<glyph unicode="&#xd2;" horiz-adv-x="1557" d="M76 749q0 357 189 569t513 212q327 0 515 -215t188 -568t-191 -565q-190 -211 -512 -211q-316 0 -510 206q-192 207 -192 572zM401 2029h357l207 -394h-240zM481 748q0 -204 76 -323q77 -119 221 -119t221 119t77 322q0 208 -76 327q-76 120 -222 120t-222 -121 q-75 -120 -75 -325z" />
<glyph unicode="&#xd3;" horiz-adv-x="1557" d="M76 749q0 357 189 569t513 212q327 0 515 -215t188 -568t-191 -565q-190 -211 -512 -211q-316 0 -510 206q-192 207 -192 572zM481 748q0 -204 76 -323q77 -119 221 -119t221 119t77 322q0 208 -76 327q-76 120 -222 120t-222 -121q-75 -120 -75 -325zM591 1635l207 394 h357l-323 -394h-241z" />
<glyph unicode="&#xd4;" horiz-adv-x="1557" d="M76 749q0 357 189 569t513 212q327 0 515 -215t188 -568t-191 -565q-190 -211 -512 -211q-316 0 -510 206q-192 207 -192 572zM403 1635l281 379h187l282 -379h-233l-143 138l-142 -138h-232zM481 748q0 -204 76 -323q77 -119 221 -119t221 119t77 322q0 208 -76 327 q-76 120 -222 120t-222 -121q-75 -120 -75 -325z" />
<glyph unicode="&#xd5;" horiz-adv-x="1557" d="M76 749q0 357 189 569t513 212q327 0 515 -215t188 -568t-191 -565q-190 -211 -512 -211q-316 0 -510 206q-192 207 -192 572zM431 1785q100 199 215 199q66 0 152 -53q80 -50 113 -50q47 0 94 72l121 -87q-47 -87 -97 -142q-51 -55 -123 -55q-58 0 -174 68 q-61 35 -87 35q-43 0 -90 -71zM481 748q0 -204 76 -323q77 -119 221 -119t221 119t77 322q0 208 -76 327q-76 120 -222 120t-222 -121q-75 -120 -75 -325z" />
<glyph unicode="&#xd6;" horiz-adv-x="1557" d="M76 749q0 357 189 569t513 212q327 0 515 -215t188 -568t-191 -565q-190 -211 -512 -211q-316 0 -510 206q-192 207 -192 572zM353 1591v335h356v-335h-356zM481 748q0 -204 76 -323q77 -119 221 -119t221 119t77 322q0 208 -76 327q-76 120 -222 120t-222 -121 q-75 -120 -75 -325zM846 1591v335h357v-335h-357z" />
<glyph unicode="&#xd7;" horiz-adv-x="1365" d="M135 406l345 344l-345 345l203 203l345 -345l344 345l203 -203l-344 -345l344 -344l-203 -203l-344 344l-345 -344z" />
<glyph unicode="&#xd8;" horiz-adv-x="1557" d="M76 126l124 142q-124 202 -124 481q0 357 189 569t513 212q241 0 413 -121l106 121l184 -155l-124 -143q124 -202 124 -485q0 -354 -190 -565t-513 -211q-239 0 -412 121l-105 -121zM481 750q0 -76 12 -144l458 527q-70 61 -173 61q-146 0 -222 -121q-75 -122 -75 -323z M606 368q70 -62 172 -62q145 0 221 118q77 119 77 323q0 86 -13 147z" />
<glyph unicode="&#xd9;" horiz-adv-x="1544" d="M152 580v921h397v-837q0 -188 52 -273t172 -85q119 0 171 85t52 273v837h397v-921q0 -314 -151.5 -461.5t-468.5 -147.5q-319 0 -471 146q-150 147 -150 463zM395 2029h357l207 -394h-240z" />
<glyph unicode="&#xda;" horiz-adv-x="1544" d="M152 580v921h397v-837q0 -188 52 -273t172 -85q119 0 171 85t52 273v837h397v-921q0 -314 -151.5 -461.5t-468.5 -147.5q-319 0 -471 146q-150 147 -150 463zM585 1635l207 394h357l-323 -394h-241z" />
<glyph unicode="&#xdb;" horiz-adv-x="1544" d="M152 580v921h397v-837q0 -188 52 -273t172 -85q119 0 171 85t52 273v837h397v-921q0 -314 -151.5 -461.5t-468.5 -147.5q-319 0 -471 146q-150 147 -150 463zM397 1635l281 379h187l282 -379h-233l-143 138l-142 -138h-232z" />
<glyph unicode="&#xdc;" horiz-adv-x="1544" d="M152 580v921h397v-837q0 -188 52 -273t172 -85q119 0 171 85t52 273v837h397v-921q0 -314 -151.5 -461.5t-468.5 -147.5q-319 0 -471 146q-150 147 -150 463zM347 1591v335h356v-335h-356zM840 1591v335h357v-335h-357z" />
<glyph unicode="&#xdd;" horiz-adv-x="1311" d="M16 1501h426l219 -528l215 528h418l-440 -913v-588h-398v592zM468 1635l207 394h357l-323 -394h-241z" />
<glyph unicode="&#xde;" horiz-adv-x="1397" d="M164 0v1501h397v-264h174q289 0 442.5 -122.5t153.5 -351.5q0 -244 -152 -372q-151 -127 -423 -127h-195v-264h-397zM561 572h127q122 0 180 51q58 52 58 127q0 78 -53.5 125t-156.5 47h-155v-350z" />
<glyph unicode="&#xdf;" horiz-adv-x="1223" d="M137 0v1026q0 243 124.5 373.5t358.5 130.5q216 0 336 -105q121 -103 121 -264q0 -208 -197 -313q277 -106 277 -425q0 -198 -109 -322t-319 -124q-75 0 -150 23v283q56 -29 100 -29q114 0 114 189q0 128 -45 187.5t-150 67.5v257q127 15 127 157q0 141 -115 141 q-117 0 -117 -198v-1055h-356z" />
<glyph unicode="&#xe0;" horiz-adv-x="1163" d="M66 285q0 121 66.5 196.5t199.5 116.5l348 109v36q0 91 -121 91q-199 0 -432 -117v284q231 86 473 86q222 0 329 -86t107 -282v-719h-293l-24 92q-139 -115 -309 -115q-144 0 -245 81q-99 82 -99 227zM211 1594h357l207 -394h-240zM408 309q0 -52 31 -80t73 -28 q76 0 168 75v242q-24 -21 -52 -31l-110 -43q-110 -42 -110 -135z" />
<glyph unicode="&#xe1;" horiz-adv-x="1163" d="M66 285q0 121 66.5 196.5t199.5 116.5l348 109v36q0 91 -121 91q-199 0 -432 -117v284q231 86 473 86q222 0 329 -86t107 -282v-719h-293l-24 92q-139 -115 -309 -115q-144 0 -245 81q-99 82 -99 227zM390 1200l207 394h357l-323 -394h-241zM408 309q0 -52 31 -80t73 -28 q76 0 168 75v242q-24 -21 -52 -31l-110 -43q-110 -42 -110 -135z" />
<glyph unicode="&#xe2;" horiz-adv-x="1163" d="M66 285q0 121 66.5 196.5t199.5 116.5l348 109v36q0 91 -121 91q-199 0 -432 -117v284q231 86 473 86q222 0 329 -86t107 -282v-719h-293l-24 92q-139 -115 -309 -115q-144 0 -245 81q-99 82 -99 227zM201 1200l281 379h187l282 -379h-233l-143 138l-142 -138h-232z M408 309q0 -52 31 -80t73 -28q76 0 168 75v242q-24 -21 -52 -31l-110 -43q-110 -42 -110 -135z" />
<glyph unicode="&#xe3;" horiz-adv-x="1163" d="M66 285q0 121 66.5 196.5t199.5 116.5l348 109v36q0 91 -121 91q-199 0 -432 -117v284q231 86 473 86q222 0 329 -86t107 -282v-719h-293l-24 92q-139 -115 -309 -115q-144 0 -245 81q-99 82 -99 227zM204 1350q100 199 215 199q66 0 152 -53q80 -50 113 -50q48 0 94 72 l121 -87q-47 -87 -97 -142q-51 -55 -123 -55q-58 0 -174 68q-61 35 -87 35q-43 0 -90 -71zM408 309q0 -52 31 -80t73 -28q76 0 168 75v242q-24 -21 -52 -31l-110 -43q-110 -42 -110 -135z" />
<glyph unicode="&#xe4;" horiz-adv-x="1163" d="M66 285q0 121 66.5 196.5t199.5 116.5l348 109v36q0 91 -121 91q-199 0 -432 -117v284q231 86 473 86q222 0 329 -86t107 -282v-719h-293l-24 92q-139 -115 -309 -115q-144 0 -245 81q-99 82 -99 227zM139 1214v287h356v-287h-356zM408 309q0 -52 31 -80t73 -28 q76 0 168 75v242q-24 -21 -52 -31l-110 -43q-110 -42 -110 -135zM632 1214v287h357v-287h-357z" />
<glyph unicode="&#xe5;" horiz-adv-x="1163" d="M66 285q0 121 66.5 196.5t199.5 116.5l348 109v36q0 91 -121 91q-199 0 -432 -117v284q231 86 473 86q222 0 329 -86t107 -282v-719h-293l-24 92q-139 -115 -309 -115q-144 0 -245 81q-99 82 -99 227zM308 1417q0 105 75 182q76 76 182 76q105 0 180 -75q75 -74 75 -183 q0 -103 -75 -178q-73 -75 -180 -75q-104 0 -181 74q-76 73 -76 179zM408 309q0 -52 31 -80t73 -28q76 0 168 75v242q-24 -21 -52 -31l-110 -43q-110 -42 -110 -135zM465 1420q0 -37 29 -69q30 -31 70 -31q39 0 68 28q31 28 31 70q0 40 -30 70q-30 31 -70 31q-39 0 -69 -30 q-29 -29 -29 -69z" />
<glyph unicode="&#xe6;" horiz-adv-x="1763" d="M66 287q0 341 614 370v80q0 55 -30 76t-93 21q-195 0 -430 -117v284q243 86 444 86q110 0 190 -37q81 -36 113 -92q124 129 330 129q216 0 355 -127t139 -389v-108h-666q17 -215 283 -215q174 0 325 76v-287q-166 -60 -370 -60q-322 0 -465 173q-190 -173 -399 -173 q-152 0 -246 82t-94 228zM408 311q0 -50 28.5 -80t73.5 -30q76 0 207 110q-29 83 -33 152q-149 -9 -212.5 -44.5t-63.5 -107.5zM1036 657h334q-7 87 -50 136t-114 49q-152 0 -170 -185z" />
<glyph unicode="&#xe7;" horiz-adv-x="1004" d="M66 533q0 239 146 397q147 158 399 158q161 0 323 -68v-311q-146 92 -263 92q-111 0 -175 -72q-65 -71 -65 -196q0 -118 59 -194q58 -75 187 -75q130 0 278 94v-311q-135 -59 -293 -68l-5 -10q174 -41 174 -186q0 -191 -294 -191q-130 0 -259 41l74 148q96 -29 176 -29 q95 0 95 51q0 68 -175 72l59 109q-210 30 -326 179q-115 148 -115 370z" />
<glyph unicode="&#xe8;" horiz-adv-x="1157" d="M66 530q0 248 140 403q141 154 390 154q168 0 290 -77q121 -76 163 -195q43 -117 43 -231v-142h-664q26 -194 289 -194q159 0 317 76v-287q-160 -60 -372 -60q-300 0 -448 147t-148 406zM226 1594h357l207 -394h-240zM428 637h336q-9 205 -164 205q-156 0 -172 -205z" />
<glyph unicode="&#xe9;" horiz-adv-x="1157" d="M66 530q0 248 140 403q141 154 390 154q168 0 290 -77q121 -76 163 -195q43 -117 43 -231v-142h-664q26 -194 289 -194q159 0 317 76v-287q-160 -60 -372 -60q-300 0 -448 147t-148 406zM392 1200l207 394h357l-323 -394h-241zM428 637h336q-9 205 -164 205 q-156 0 -172 -205z" />
<glyph unicode="&#xea;" horiz-adv-x="1157" d="M66 530q0 248 140 403q141 154 390 154q168 0 290 -77q121 -76 163 -195q43 -117 43 -231v-142h-664q26 -194 289 -194q159 0 317 76v-287q-160 -60 -372 -60q-300 0 -448 147t-148 406zM204 1200l281 379h187l282 -379h-233l-143 138l-142 -138h-232zM428 637h336 q-9 205 -164 205q-156 0 -172 -205z" />
<glyph unicode="&#xeb;" horiz-adv-x="1157" d="M66 530q0 248 140 403q141 154 390 154q168 0 290 -77q121 -76 163 -195q43 -117 43 -231v-142h-664q26 -194 289 -194q159 0 317 76v-287q-160 -60 -372 -60q-300 0 -448 147t-148 406zM154 1214v287h356v-287h-356zM428 637h336q-9 205 -164 205q-156 0 -172 -205z M647 1214v287h357v-287h-357z" />
<glyph unicode="&#xec;" horiz-adv-x="631" d="M-61 1594h357l207 -394h-240zM137 0v1065h356v-1065h-356z" />
<glyph unicode="&#xed;" horiz-adv-x="631" d="M129 1200l207 394h357l-323 -394h-241zM137 0v1065h356v-1065h-356z" />
<glyph unicode="&#xee;" horiz-adv-x="631" d="M-58 1200l281 379h187l282 -379h-233l-143 138l-142 -138h-232zM137 0v1065h356v-1065h-356z" />
<glyph unicode="&#xef;" horiz-adv-x="631" d="M-108 1214v287h356v-287h-356zM137 0v1065h356v-1065h-356zM385 1214v287h357v-287h-357z" />
<glyph unicode="&#xf0;" horiz-adv-x="1211" d="M66 533q0 250 136 402q136 153 339 153q91 0 166 -39q-40 76 -117 157l-108 -57l-115 104l127 68q-93 96 -199 180h310q50 -39 88 -76l125 66l114 -104l-135 -72q348 -372 348 -768q0 -256 -139 -413t-397 -157q-266 0 -405 154q-138 155 -138 402zM431 533 q0 -123 45 -196t130 -73q84 0 129.5 73.5t45.5 203.5q0 106 -44 183t-131 77q-82 0 -128.5 -72t-46.5 -196z" />
<glyph unicode="&#xf1;" horiz-adv-x="1270" d="M137 0v1065h356v-115q186 138 344 138q306 0 306 -336v-752h-357v649q0 127 -86 127q-82 0 -207 -88v-688h-356zM292 1350q100 199 215 199q66 0 152 -53q80 -50 113 -50q48 0 94 72l121 -87q-47 -87 -97 -142q-51 -55 -123 -55q-58 0 -174 68q-61 35 -87 35 q-43 0 -90 -71z" />
<glyph unicode="&#xf2;" horiz-adv-x="1211" d="M66 533q0 257 142 405q142 150 398 150t397 -151q142 -151 142 -404q0 -250 -141 -403q-140 -153 -396 -153t-399 150q-143 152 -143 406zM229 1594h357l207 -394h-240zM431 533q0 -126 45 -197.5t130 -71.5q83 0 129 73t46 198q0 119 -45 192q-44 74 -130 74 q-84 0 -129.5 -71.5t-45.5 -196.5z" />
<glyph unicode="&#xf3;" horiz-adv-x="1211" d="M66 533q0 257 142 405q142 150 398 150t397 -151q142 -151 142 -404q0 -250 -141 -403q-140 -153 -396 -153t-399 150q-143 152 -143 406zM419 1200l207 394h357l-323 -394h-241zM431 533q0 -126 45 -197.5t130 -71.5q83 0 129 73t46 198q0 119 -45 192q-44 74 -130 74 q-84 0 -129.5 -71.5t-45.5 -196.5z" />
<glyph unicode="&#xf4;" horiz-adv-x="1211" d="M66 533q0 257 142 405q142 150 398 150t397 -151q142 -151 142 -404q0 -250 -141 -403q-140 -153 -396 -153t-399 150q-143 152 -143 406zM230 1200l281 379h187l282 -379h-233l-143 138l-142 -138h-232zM431 533q0 -126 45 -197.5t130 -71.5q83 0 129 73t46 198 q0 119 -45 192q-44 74 -130 74q-84 0 -129.5 -71.5t-45.5 -196.5z" />
<glyph unicode="&#xf5;" horiz-adv-x="1211" d="M66 533q0 257 142 405q142 150 398 150t397 -151q142 -151 142 -404q0 -250 -141 -403q-140 -153 -396 -153t-399 150q-143 152 -143 406zM258 1350q100 199 215 199q66 0 152 -53q80 -50 113 -50q48 0 94 72l121 -87q-47 -87 -97 -142q-51 -55 -123 -55q-58 0 -174 68 q-61 35 -87 35q-43 0 -90 -71zM431 533q0 -126 45 -197.5t130 -71.5q83 0 129 73t46 198q0 119 -45 192q-44 74 -130 74q-84 0 -129.5 -71.5t-45.5 -196.5z" />
<glyph unicode="&#xf6;" horiz-adv-x="1211" d="M66 533q0 257 142 405q142 150 398 150t397 -151q142 -151 142 -404q0 -250 -141 -403q-140 -153 -396 -153t-399 150q-143 152 -143 406zM181 1214v287h356v-287h-356zM431 533q0 -126 45 -197.5t130 -71.5q83 0 129 73t46 198q0 119 -45 192q-44 74 -130 74 q-84 0 -129.5 -71.5t-45.5 -196.5zM674 1214v287h357v-287h-357z" />
<glyph unicode="&#xf7;" horiz-adv-x="1365" d="M113 607v287h1139v-287h-1139zM519 134v326h327v-326h-327zM519 1041v326h327v-326h-327z" />
<glyph unicode="&#xf8;" horiz-adv-x="1211" d="M66 110l87 89q-87 140 -87 334q0 256 142 405q142 150 399 150q188 0 319 -85l81 85l138 -133l-86 -89q86 -137 86 -333q0 -249 -140 -403q-139 -153 -398 -153q-187 0 -320 86l-83 -86zM431 533q0 -32 1 -45l270 280q-40 33 -95 33q-85 0 -130.5 -71.5t-45.5 -196.5z M511 296q40 -32 96 -32q83 0 128.5 73t45.5 198q0 10 -2 40z" />
<glyph unicode="&#xf9;" horiz-adv-x="1270" d="M127 314v751h356v-649q0 -126 86 -126q83 0 207 87v688h357v-1065h-357v115q-186 -138 -343 -138q-306 0 -306 337zM277 1594h357l207 -394h-240z" />
<glyph unicode="&#xfa;" horiz-adv-x="1270" d="M127 314v751h356v-649q0 -126 86 -126q83 0 207 87v688h357v-1065h-357v115q-186 -138 -343 -138q-306 0 -306 337zM419 1200l207 394h357l-323 -394h-241z" />
<glyph unicode="&#xfb;" horiz-adv-x="1270" d="M127 314v751h356v-649q0 -126 86 -126q83 0 207 87v688h357v-1065h-357v115q-186 -138 -343 -138q-306 0 -306 337zM255 1200l281 379h187l282 -379h-233l-143 138l-142 -138h-232z" />
<glyph unicode="&#xfc;" horiz-adv-x="1270" d="M127 314v751h356v-649q0 -126 86 -126q83 0 207 87v688h357v-1065h-357v115q-186 -138 -343 -138q-306 0 -306 337zM205 1214v287h356v-287h-356zM698 1214v287h357v-287h-357z" />
<glyph unicode="&#xfd;" horiz-adv-x="1085" d="M24 1065h352l174 -592l174 592h345l-308 -934q-106 -325 -205 -427q-98 -101 -300 -101q-61 0 -181 8v277q82 -9 152 -9q61 0 95 20q33 19 62 78zM359 1200l207 394h357l-323 -394h-241z" />
<glyph unicode="&#xfe;" horiz-adv-x="1264" d="M137 -397v1898h356v-514q121 101 281 101q195 0 309 -158q115 -157 115 -399q0 -251 -117 -403q-117 -151 -303 -151q-160 0 -285 113v-487h-356zM493 352q78 -79 167 -79q83 0 128 69t45 195q0 119 -45.5 187.5t-123.5 68.5q-86 0 -171 -93v-348z" />
<glyph unicode="&#xff;" horiz-adv-x="1085" d="M24 1065h352l174 -592l174 592h345l-308 -934q-106 -325 -205 -427q-98 -101 -300 -101q-61 0 -181 8v277q82 -9 152 -9q61 0 95 20q33 19 62 78zM121 1214v287h356v-287h-356zM614 1214v287h357v-287h-357z" />
<glyph unicode="&#x152;" horiz-adv-x="2075" d="M76 750q0 238 80 415q80 176 227 271q146 94 324 94q234 0 380 -176v147h855v-315h-529v-271h483v-309h-483v-291h551v-315h-877v147q-67 -82 -170 -129t-212 -47q-272 0 -450 208q-179 209 -179 571zM481 750q0 -204 69 -324q71 -119 198 -119q129 0 198 120 q70 121 70 321q0 205 -69 325q-69 121 -197 121q-131 0 -200 -122q-69 -121 -69 -322z" />
<glyph unicode="&#x153;" horiz-adv-x="1858" d="M66 532q0 262 143 408q143 147 383 147q219 0 362 -155q61 73 157 114q97 41 194 41q231 0 358 -133q129 -133 129 -370v-142h-664q26 -194 285 -194q164 0 322 76v-287q-167 -60 -369 -60q-266 0 -408 156q-68 -75 -169 -116q-99 -40 -195 -40q-244 0 -386 150 q-142 151 -142 405zM430 532q0 -124 44 -196t126 -72t127 72t45 199q0 122 -45 194t-127 72t-126 -71t-44 -198zM1128 637h336q-10 205 -164 205q-159 0 -172 -205z" />
<glyph unicode="&#x178;" horiz-adv-x="1311" d="M16 1501h426l219 -528l215 528h418l-440 -913v-588h-398v592zM230 1640v335h356v-335h-356zM723 1640v335h357v-335h-357z" />
<glyph unicode="&#x2c6;" horiz-adv-x="682" d="M-34 1200l281 379h187l282 -379h-233l-143 138l-142 -138h-232z" />
<glyph unicode="&#x2dc;" horiz-adv-x="682" d="M-6 1350q100 199 215 199q66 0 152 -53q80 -50 113 -50q48 0 94 72l121 -87q-47 -87 -97 -142q-51 -55 -123 -55q-58 0 -174 68q-61 35 -87 35q-43 0 -90 -71z" />
<glyph unicode="&#x2000;" horiz-adv-x="1014" />
<glyph unicode="&#x2001;" horiz-adv-x="2029" />
<glyph unicode="&#x2002;" horiz-adv-x="1014" />
<glyph unicode="&#x2003;" horiz-adv-x="2029" />
<glyph unicode="&#x2004;" horiz-adv-x="676" />
<glyph unicode="&#x2005;" horiz-adv-x="507" />
<glyph unicode="&#x2006;" horiz-adv-x="338" />
<glyph unicode="&#x2007;" horiz-adv-x="338" />
<glyph unicode="&#x2008;" horiz-adv-x="253" />
<glyph unicode="&#x2009;" horiz-adv-x="405" />
<glyph unicode="&#x200a;" horiz-adv-x="112" />
<glyph unicode="&#x2010;" horiz-adv-x="672" d="M72 389v287h528v-287h-528z" />
<glyph unicode="&#x2011;" horiz-adv-x="672" d="M72 389v287h528v-287h-528z" />
<glyph unicode="&#x2012;" horiz-adv-x="672" d="M72 389v287h528v-287h-528z" />
<glyph unicode="&#x2013;" horiz-adv-x="944" d="M44 381v307h858v-307h-858z" />
<glyph unicode="&#x2014;" horiz-adv-x="2048" d="M-12 415v235h2072v-235h-2072z" />
<glyph unicode="&#x2018;" horiz-adv-x="590" d="M107 817v354l148 359h190l-98 -344h135v-369h-375z" />
<glyph unicode="&#x2019;" horiz-adv-x="590" d="M107 1132v369h375v-355l-148 -358h-190l98 344h-135z" />
<glyph unicode="&#x201a;" horiz-adv-x="590" d="M107 0v369h375v-355l-148 -358h-190l98 344h-135z" />
<glyph unicode="&#x201c;" horiz-adv-x="1152" d="M107 817v354l148 359h190l-98 -344h135v-369h-375zM669 817v354l147 359h191l-98 -344h135v-369h-375z" />
<glyph unicode="&#x201d;" horiz-adv-x="1152" d="M107 1132v369h375v-355l-148 -358h-190l98 344h-135zM669 1132v369h375v-355l-148 -358h-190l98 344h-135z" />
<glyph unicode="&#x201e;" horiz-adv-x="1152" d="M107 0v369h375v-355l-148 -358h-190l98 344h-135zM669 0v369h375v-355l-148 -358h-190l98 344h-135z" />
<glyph unicode="&#x2022;" horiz-adv-x="729" d="M77 750q0 119 84 203q85 85 203 85t203 -85q85 -84 85 -203q0 -118 -85 -203q-84 -84 -203 -84q-118 0 -203 84q-84 85 -84 203z" />
<glyph unicode="&#x2026;" horiz-adv-x="2048" d="M154 0v369h375v-369h-375zM837 0v369h375v-369h-375zM1519 0v369h375v-369h-375z" />
<glyph unicode="&#x202f;" horiz-adv-x="405" />
<glyph unicode="&#x2039;" horiz-adv-x="853" d="M35 533l393 474h390l-393 -474l393 -474h-390z" />
<glyph unicode="&#x203a;" horiz-adv-x="853" d="M35 59l393 474l-393 474h390l393 -474l-393 -474h-390z" />
<glyph unicode="&#x205f;" horiz-adv-x="507" />
<glyph unicode="&#x20ac;" d="M-6 485l43 199h65l-2 66q0 35 2 63h-108l43 199h98q71 254 244 386t430 132q166 0 367 -70v-346q-175 94 -332 94q-225 0 -309 -196h575l-41 -199h-584q-2 -34 -2 -68q0 -31 2 -61h562l-41 -199h-471q83 -192 321 -192q159 0 338 94v-346q-192 -70 -383 -70 q-264 0 -440 133q-177 134 -240 381h-137z" />
<glyph unicode="&#x2122;" horiz-adv-x="1427" d="M34 1311v190h538v-190h-169v-480h-200v480h-169zM651 831v670h269l95 -344l98 344h269v-670h-194v351l-101 -351h-144l-98 351v-351h-194z" />
<glyph unicode="&#x25fc;" horiz-adv-x="1065" d="M0 0v1065h1065v-1065h-1065z" />
</font>
</defs>
</svg>
